solid Icebot_pin02
facet normal -3.6446475884119175e-15 0.5105386831066592 0.8598547860259419
  outer loop
    vertex 22.366703625100662 4.8999997078730075 10.099999904632577
    vertex 19.366703714507615 6.500000089342733 9.14999985694886
    vertex 19.366703714507587 4.8999997078730075 10.099999904632563
  endloop
endfacet
facet normal -3.6446475884119175e-15 0.5105386831066592 0.8598547860259419
  outer loop
    vertex 19.366703714507615 6.500000089342733 9.14999985694886
    vertex 22.366703625100662 4.8999997078730075 10.099999904632577
    vertex 22.366703625100662 6.500000089342733 9.149999856948872
  endloop
endfacet
facet normal 0.0 -1.0 0.0
  outer loop
    vertex 22.366703625100662 4.500000089342731 9.149999856948872
    vertex 19.366703714507587 4.500000089342734 10.099999904632567
    vertex 19.366703714507615 4.500000089342731 9.149999856948861
  endloop
endfacet
facet normal 0.0 -1.0 0.0
  outer loop
    vertex 19.366703714507587 4.500000089342734 10.099999904632567
    vertex 22.366703625100662 4.500000089342731 9.149999856948872
    vertex 22.366703625100662 4.500000089342734 10.09999990463258
  endloop
endfacet
facet normal -4.699944277649012e-15 0.0 1.0
  outer loop
    vertex 22.366703625100662 4.500000089342734 10.09999990463258
    vertex 19.366703714507587 4.8999997078730075 10.099999904632563
    vertex 19.366703714507587 4.500000089342734 10.099999904632567
  endloop
endfacet
facet normal -4.699944277649012e-15 0.0 1.0
  outer loop
    vertex 19.366703714507587 4.8999997078730075 10.099999904632563
    vertex 22.366703625100662 4.500000089342734 10.09999990463258
    vertex 22.366703625100662 4.8999997078730075 10.099999904632577
  endloop
endfacet
facet normal 0.0 1.0 0.0
  outer loop
    vertex 19.366703714507615 6.500000089342733 9.14999985694886
    vertex 22.36670362510065 6.500000089342733 8.349999785423282
    vertex 19.366703714507604 6.500000089342733 8.349999785423277
  endloop
endfacet
facet normal 0.0 1.0 0.0
  outer loop
    vertex 22.36670362510065 6.500000089342733 8.349999785423282
    vertex 19.366703714507615 6.500000089342733 9.14999985694886
    vertex 22.366703625100662 6.500000089342733 9.149999856948872
  endloop
endfacet
facet normal 1.0145371643186417e-15 0.5105386831066664 -0.8598547860259377
  outer loop
    vertex 22.366703625100676 6.500000089342733 5.9499998092651545
    vertex 19.366703714507615 4.8999997078729995 4.99999976158143
    vertex 19.366703714507615 6.500000089342733 5.949999809265147
  endloop
endfacet
facet normal 1.0145371643186417e-15 0.5105386831066664 -0.8598547860259377
  outer loop
    vertex 19.366703714507615 4.8999997078729995 4.99999976158143
    vertex 22.366703625100676 6.500000089342733 5.9499998092651545
    vertex 22.36670362510065 4.8999997078729995 4.99999976158143
  endloop
endfacet
facet normal 2.3499721388245436e-16 0.0 -1.0
  outer loop
    vertex 22.36670362510065 4.8999997078729995 4.99999976158143
    vertex 19.366703714507615 4.500000089342725 4.999999761581428
    vertex 19.366703714507615 4.8999997078729995 4.99999976158143
  endloop
endfacet
facet normal 2.3499721388245436e-16 0.0 -1.0
  outer loop
    vertex 19.366703714507615 4.500000089342725 4.999999761581428
    vertex 22.36670362510065 4.8999997078729995 4.99999976158143
    vertex 22.36670362510065 4.500000089342725 4.999999761581428
  endloop
endfacet
facet normal 0.0 1.0 0.0
  outer loop
    vertex 19.366703714507597 6.5000000893427305 6.749999821186066
    vertex 22.366703625100676 6.500000089342733 5.9499998092651545
    vertex 19.366703714507615 6.500000089342733 5.949999809265147
  endloop
endfacet
facet normal 0.0 1.0 0.0
  outer loop
    vertex 22.366703625100676 6.500000089342733 5.9499998092651545
    vertex 19.366703714507597 6.5000000893427305 6.749999821186066
    vertex 22.366703625100662 6.5000000893427305 6.749999821186076
  endloop
endfacet
facet normal 0.0 -1.0 0.0
  outer loop
    vertex 22.366703625100676 4.500000089342731 5.949999809265157
    vertex 19.366703714507615 4.500000089342725 4.999999761581428
    vertex 22.36670362510065 4.500000089342725 4.999999761581428
  endloop
endfacet
facet normal 0.0 -1.0 0.0
  outer loop
    vertex 19.366703714507615 4.500000089342725 4.999999761581428
    vertex 22.366703625100676 4.500000089342731 5.949999809265157
    vertex 19.366703714507615 4.500000089342731 5.94999980926515
  endloop
endfacet
facet normal 1.0 1.9864623598875185e-16 -6.0755651212901484e-15
  outer loop
    vertex 22.36670362510065 1.3999998558548417 8.128260683146072
    vertex 22.366703625100662 4.500000089342731 9.149999856948872
    vertex 22.366703625100662 1.399999855854836 9.14999985694886
  endloop
endfacet
facet normal 1.0 1.9864623598875185e-16 -6.0755651212901484e-15
  outer loop
    vertex 22.366703625100662 4.500000089342731 9.149999856948872
    vertex 22.36670362510065 1.3999998558548417 8.128260683146072
    vertex 22.36670362510065 6.500000089342733 8.349999785423282
  endloop
endfacet
facet normal 1.0 1.9864623598875185e-16 -6.0755651212901484e-15
  outer loop
    vertex 22.366703625100662 4.500000089342731 9.149999856948872
    vertex 22.36670362510065 6.500000089342733 8.349999785423282
    vertex 22.366703625100662 4.500000089342734 10.09999990463258
  endloop
endfacet
facet normal 1.0 1.9864623598875185e-16 -6.0755651212901484e-15
  outer loop
    vertex 22.366703625100662 4.500000089342734 10.09999990463258
    vertex 22.36670362510065 6.500000089342733 8.349999785423282
    vertex 22.366703625100662 4.8999997078730075 10.099999904632577
  endloop
endfacet
facet normal 1.0 1.9864623598875185e-16 -6.0755651212901484e-15
  outer loop
    vertex 22.366703625100662 4.8999997078730075 10.099999904632577
    vertex 22.36670362510065 6.500000089342733 8.349999785423282
    vertex 22.366703625100662 6.500000089342733 9.149999856948872
  endloop
endfacet
facet normal 1.9974763180008598e-15 4.3333957515980126e-16 -1.0
  outer loop
    vertex 22.366703625100676 4.500000089342731 5.949999809265157
    vertex 19.366703714507615 1.3999998558648314 5.949999809265147
    vertex 19.366703714507615 4.500000089342731 5.94999980926515
  endloop
endfacet
facet normal 1.9974763180008598e-15 4.3333957515980126e-16 -1.0
  outer loop
    vertex 19.366703714507615 1.3999998558648314 5.949999809265147
    vertex 22.366703625100676 4.500000089342731 5.949999809265157
    vertex 22.366703625100676 1.3999998558648301 5.949999809265153
  endloop
endfacet
facet normal -7.03213280312571e-16 0.043437216785943276 -0.9990561586807275
  outer loop
    vertex 22.36670362510065 6.500000089342733 8.349999785423282
    vertex 19.366703714507626 1.3999998558554578 8.12826068314611
    vertex 19.366703714507604 6.500000089342733 8.349999785423277
  endloop
endfacet
facet normal -7.03213280312571e-16 0.043437216785943276 -0.9990561586807275
  outer loop
    vertex 19.366703714507626 1.3999998558554578 8.12826068314611
    vertex 22.36670362510065 6.500000089342733 8.349999785423282
    vertex 22.36670362510065 1.3999998558548417 8.128260683146072
  endloop
endfacet
facet normal 2.925211056751483e-13 1.0 9.51108465377479e-13
  outer loop
    vertex 18.366703625100666 1.3999998558548403 5.149999856948866
    vertex 19.366703714507615 1.3999998558648314 5.949999809265147
    vertex 23.366703625100662 1.3999998558548403 5.149999856948866
  endloop
endfacet
facet normal 2.925211056751483e-13 1.0 9.51108465377479e-13
  outer loop
    vertex 19.366703714507615 1.3999998558648314 5.949999809265147
    vertex 18.366703625100666 1.3999998558548403 5.149999856948866
    vertex 18.366703625100666 1.3999998558548403 9.795141598901113
  endloop
endfacet
facet normal 2.925211056751483e-13 1.0 9.51108465377479e-13
  outer loop
    vertex 19.366703714507615 1.3999998558648314 5.949999809265147
    vertex 18.366703625100666 1.3999998558548403 9.795141598901113
    vertex 19.36670371450761 1.3999998558648314 6.971738945490644
  endloop
endfacet
facet normal 2.925211056751483e-13 1.0 9.51108465377479e-13
  outer loop
    vertex 19.36670371450761 1.3999998558648314 6.971738945490644
    vertex 18.366703625100666 1.3999998558548403 9.795141598901113
    vertex 19.366703714507626 1.3999998558554578 8.12826068314611
  endloop
endfacet
facet normal 2.925211056751483e-13 1.0 9.51108465377479e-13
  outer loop
    vertex 19.36670371450761 1.3999998558648314 6.971738945490644
    vertex 19.366703714507626 1.3999998558554578 8.12826068314611
    vertex 22.36670362510067 1.3999998558648301 6.971738945490656
  endloop
endfacet
facet normal 2.925211056751483e-13 1.0 9.51108465377479e-13
  outer loop
    vertex 22.36670362510067 1.3999998558648301 6.971738945490656
    vertex 19.366703714507626 1.3999998558554578 8.12826068314611
    vertex 22.36670362510065 1.3999998558548417 8.128260683146072
  endloop
endfacet
facet normal 2.925211056751483e-13 1.0 9.51108465377479e-13
  outer loop
    vertex 19.366703714507626 1.3999998558554578 8.12826068314611
    vertex 18.366703625100666 1.3999998558548403 9.795141598901113
    vertex 19.366703714507622 1.399999855854836 9.14999985694886
  endloop
endfacet
facet normal 2.925211056751483e-13 1.0 9.51108465377479e-13
  outer loop
    vertex 23.366703625100662 1.3999998558548403 5.149999856948866
    vertex 22.366703625100676 1.3999998558648301 5.949999809265153
    vertex 23.366703625100662 1.3999998558548403 9.795141598901113
  endloop
endfacet
facet normal 2.925211056751483e-13 1.0 9.51108465377479e-13
  outer loop
    vertex 22.366703625100676 1.3999998558648301 5.949999809265153
    vertex 23.366703625100662 1.3999998558548403 5.149999856948866
    vertex 19.366703714507615 1.3999998558648314 5.949999809265147
  endloop
endfacet
facet normal 2.925211056751483e-13 1.0 9.51108465377479e-13
  outer loop
    vertex 23.366703625100662 1.3999998558548403 9.795141598901113
    vertex 22.366703625100676 1.3999998558648301 5.949999809265153
    vertex 22.36670362510067 1.3999998558648301 6.971738945490656
  endloop
endfacet
facet normal 2.925211056751483e-13 1.0 9.51108465377479e-13
  outer loop
    vertex 23.366703625100662 1.3999998558548403 9.795141598901113
    vertex 22.36670362510067 1.3999998558648301 6.971738945490656
    vertex 22.36670362510065 1.3999998558548417 8.128260683146072
  endloop
endfacet
facet normal 2.925211056751483e-13 1.0 9.51108465377479e-13
  outer loop
    vertex 23.366703625100662 1.3999998558548403 9.795141598901113
    vertex 22.36670362510065 1.3999998558548417 8.128260683146072
    vertex 22.366703625100662 1.399999855854836 9.14999985694886
  endloop
endfacet
facet normal 2.925211056751483e-13 1.0 9.51108465377479e-13
  outer loop
    vertex 23.366703625100662 1.3999998558548403 9.795141598901113
    vertex 22.366703625100662 1.399999855854836 9.14999985694886
    vertex 19.366703714507622 1.399999855854836 9.14999985694886
  endloop
endfacet
facet normal 2.925211056751483e-13 1.0 9.51108465377479e-13
  outer loop
    vertex 23.366703625100662 1.3999998558548403 9.795141598901113
    vertex 19.366703714507622 1.399999855854836 9.14999985694886
    vertex 18.366703625100666 1.3999998558548403 9.795141598901113
  endloop
endfacet
facet normal -1.0 -1.2520302611473155e-15 -6.338328496106072e-15
  outer loop
    vertex 19.366703714507597 6.5000000893427305 6.749999821186066
    vertex 19.366703714507615 1.3999998558648314 5.949999809265147
    vertex 19.36670371450761 1.3999998558648314 6.971738945490644
  endloop
endfacet
facet normal -1.0 -1.2520302611473155e-15 -6.338328496106072e-15
  outer loop
    vertex 19.366703714507615 1.3999998558648314 5.949999809265147
    vertex 19.366703714507597 6.5000000893427305 6.749999821186066
    vertex 19.366703714507615 4.500000089342731 5.94999980926515
  endloop
endfacet
facet normal -1.0 -1.2520302611473155e-15 -6.338328496106072e-15
  outer loop
    vertex 19.366703714507615 4.500000089342731 5.94999980926515
    vertex 19.366703714507597 6.5000000893427305 6.749999821186066
    vertex 19.366703714507615 4.8999997078729995 4.99999976158143
  endloop
endfacet
facet normal -1.0 -1.2520302611473155e-15 -6.338328496106072e-15
  outer loop
    vertex 19.366703714507615 4.8999997078729995 4.99999976158143
    vertex 19.366703714507597 6.5000000893427305 6.749999821186066
    vertex 19.366703714507615 6.500000089342733 5.949999809265147
  endloop
endfacet
facet normal -1.0 -1.2520302611473155e-15 -6.338328496106072e-15
  outer loop
    vertex 19.366703714507615 4.8999997078729995 4.99999976158143
    vertex 19.366703714507615 4.500000089342725 4.999999761581428
    vertex 19.366703714507615 4.500000089342731 5.94999980926515
  endloop
endfacet
facet normal -1.0 -2.6360804449753047e-15 -1.442816159391752e-14
  outer loop
    vertex 19.366703714507615 4.500000089342731 9.149999856948861
    vertex 19.366703714507626 1.3999998558554578 8.12826068314611
    vertex 19.366703714507622 1.399999855854836 9.14999985694886
  endloop
endfacet
facet normal -1.0 -2.6360804449753047e-15 -1.442816159391752e-14
  outer loop
    vertex 19.366703714507626 1.3999998558554578 8.12826068314611
    vertex 19.366703714507615 4.500000089342731 9.149999856948861
    vertex 19.366703714507604 6.500000089342733 8.349999785423277
  endloop
endfacet
facet normal -1.0 -2.6360804449753047e-15 -1.442816159391752e-14
  outer loop
    vertex 19.366703714507604 6.500000089342733 8.349999785423277
    vertex 19.366703714507615 4.500000089342731 9.149999856948861
    vertex 19.366703714507587 4.500000089342734 10.099999904632567
  endloop
endfacet
facet normal -1.0 -2.6360804449753047e-15 -1.442816159391752e-14
  outer loop
    vertex 19.366703714507604 6.500000089342733 8.349999785423277
    vertex 19.366703714507587 4.500000089342734 10.099999904632567
    vertex 19.366703714507587 4.8999997078730075 10.099999904632563
  endloop
endfacet
facet normal -1.0 -2.6360804449753047e-15 -1.442816159391752e-14
  outer loop
    vertex 19.366703714507604 6.500000089342733 8.349999785423277
    vertex 19.366703714507587 4.8999997078730075 10.099999904632563
    vertex 19.366703714507615 6.500000089342733 9.14999985694886
  endloop
endfacet
facet normal -1.644980497177175e-15 -2.593797604474371e-15 1.0
  outer loop
    vertex 19.366703714507622 1.399999855854836 9.14999985694886
    vertex 22.366703625100662 4.500000089342731 9.149999856948872
    vertex 19.366703714507615 4.500000089342731 9.149999856948861
  endloop
endfacet
facet normal -1.644980497177175e-15 -2.593797604474371e-15 1.0
  outer loop
    vertex 22.366703625100662 4.500000089342731 9.149999856948872
    vertex 19.366703714507622 1.399999855854836 9.14999985694886
    vertex 22.366703625100662 1.399999855854836 9.14999985694886
  endloop
endfacet
facet normal -2.925211056751483e-13 -1.0 -9.51108465377479e-13
  outer loop
    vertex 23.366703625100367 0.3999998558548407 9.79514159890016
    vertex 18.36670362510037 0.3999998558548407 5.1499998569479155
    vertex 23.366703625100367 0.3999998558548407 5.1499998569479155
  endloop
endfacet
facet normal -2.925211056751483e-13 -1.0 -9.51108465377479e-13
  outer loop
    vertex 18.36670362510037 0.3999998558548407 5.1499998569479155
    vertex 23.366703625100367 0.3999998558548407 9.79514159890016
    vertex 18.36670362510037 0.3999998558548407 9.79514159890016
  endloop
endfacet
facet normal 0.0 9.51108465377479e-13 -1.0
  outer loop
    vertex 18.366703625100666 1.3999998558548403 5.149999856948866
    vertex 23.366703625100367 0.3999998558548407 5.1499998569479155
    vertex 18.36670362510037 0.3999998558548407 5.1499998569479155
  endloop
endfacet
facet normal 0.0 9.51108465377479e-13 -1.0
  outer loop
    vertex 23.366703625100367 0.3999998558548407 5.1499998569479155
    vertex 18.366703625100666 1.3999998558548403 5.149999856948866
    vertex 23.366703625100662 1.3999998558548403 5.149999856948866
  endloop
endfacet
facet normal 1.0 -2.925211056751483e-13 -4.9840611996178255e-30
  outer loop
    vertex 23.366703625100662 1.3999998558548403 5.149999856948866
    vertex 23.366703625100367 0.3999998558548407 9.79514159890016
    vertex 23.366703625100367 0.3999998558548407 5.1499998569479155
  endloop
endfacet
facet normal 1.0 -2.925211056751483e-13 -4.9840611996178255e-30
  outer loop
    vertex 23.366703625100367 0.3999998558548407 9.79514159890016
    vertex 23.366703625100662 1.3999998558548403 5.149999856948866
    vertex 23.366703625100662 1.3999998558548403 9.795141598901113
  endloop
endfacet
facet normal 0.0 -9.51108465377479e-13 1.0
  outer loop
    vertex 23.366703625100367 0.3999998558548407 9.79514159890016
    vertex 18.366703625100666 1.3999998558548403 9.795141598901113
    vertex 18.36670362510037 0.3999998558548407 9.79514159890016
  endloop
endfacet
facet normal 0.0 -9.51108465377479e-13 1.0
  outer loop
    vertex 18.366703625100666 1.3999998558548403 9.795141598901113
    vertex 23.366703625100367 0.3999998558548407 9.79514159890016
    vertex 23.366703625100662 1.3999998558548403 9.795141598901113
  endloop
endfacet
facet normal -1.0 2.925211056751483e-13 4.9840611996178255e-30
  outer loop
    vertex 18.366703625100666 1.3999998558548403 9.795141598901113
    vertex 18.36670362510037 0.3999998558548407 5.1499998569479155
    vertex 18.36670362510037 0.3999998558548407 9.79514159890016
  endloop
endfacet
facet normal -1.0 2.925211056751483e-13 4.9840611996178255e-30
  outer loop
    vertex 18.36670362510037 0.3999998558548407 5.1499998569479155
    vertex 18.366703625100666 1.3999998558548403 9.795141598901113
    vertex 18.366703625100666 1.3999998558548403 5.149999856948866
  endloop
endfacet
facet normal 1.0 5.659875528268798e-16 -7.531333105612616e-15
  outer loop
    vertex 22.36670362510065 4.8999997078729995 4.99999976158143
    vertex 22.366703625100676 4.500000089342731 5.949999809265157
    vertex 22.36670362510065 4.500000089342725 4.999999761581428
  endloop
endfacet
facet normal 1.0 5.659875528268798e-16 -7.531333105612616e-15
  outer loop
    vertex 22.366703625100676 4.500000089342731 5.949999809265157
    vertex 22.36670362510067 1.3999998558648301 6.971738945490656
    vertex 22.366703625100676 1.3999998558648301 5.949999809265153
  endloop
endfacet
facet normal 1.0 5.659875528268798e-16 -7.531333105612616e-15
  outer loop
    vertex 22.36670362510067 1.3999998558648301 6.971738945490656
    vertex 22.366703625100676 4.500000089342731 5.949999809265157
    vertex 22.366703625100662 6.5000000893427305 6.749999821186076
  endloop
endfacet
facet normal 1.0 5.659875528268798e-16 -7.531333105612616e-15
  outer loop
    vertex 22.366703625100662 6.5000000893427305 6.749999821186076
    vertex 22.366703625100676 4.500000089342731 5.949999809265157
    vertex 22.36670362510065 4.8999997078729995 4.99999976158143
  endloop
endfacet
facet normal 1.0 5.659875528268798e-16 -7.531333105612616e-15
  outer loop
    vertex 22.366703625100662 6.5000000893427305 6.749999821186076
    vertex 22.36670362510065 4.8999997078729995 4.99999976158143
    vertex 22.366703625100676 6.500000089342733 5.9499998092651545
  endloop
endfacet
facet normal -3.749003560338477e-15 0.0434372210929034 0.9990561584934685
  outer loop
    vertex 19.36670371450761 1.3999998558648314 6.971738945490644
    vertex 22.366703625100662 6.5000000893427305 6.749999821186076
    vertex 19.366703714507597 6.5000000893427305 6.749999821186066
  endloop
endfacet
facet normal -3.749003560338477e-15 0.0434372210929034 0.9990561584934685
  outer loop
    vertex 22.366703625100662 6.5000000893427305 6.749999821186076
    vertex 19.36670371450761 1.3999998558648314 6.971738945490644
    vertex 22.36670362510067 1.3999998558648301 6.971738945490656
  endloop
endfacet
facet normal 6.937898963782951e-17 -4.589034103241942e-12 1.0
  outer loop
    vertex 15.400000810623169 1.399999855831915 14.149999856957107
    vertex 19.000001192092892 0.5999999939752977 14.14999985695344
    vertex 26.400000810623162 1.3999998558319093 14.149999856957107
  endloop
endfacet
facet normal 6.937898963782951e-17 -4.589034103241942e-12 1.0
  outer loop
    vertex 19.000001192092892 0.5999999939752977 14.14999985695344
    vertex 15.400000810623169 1.399999855831915 14.149999856957107
    vertex 16.700000047683716 -0.4000000060247008 14.149999856948849
  endloop
endfacet
facet normal 6.937898963782951e-17 -4.589034103241942e-12 1.0
  outer loop
    vertex 16.700000047683716 -0.4000000060247008 14.149999856948849
    vertex 15.400000810623169 1.399999855831915 14.149999856957107
    vertex 15.400000810623169 -4.6000000537084205 14.149999856929584
  endloop
endfacet
facet normal 6.937898963782951e-17 -4.589034103241942e-12 1.0
  outer loop
    vertex 16.700000047683716 -0.4000000060247008 14.149999856948849
    vertex 15.400000810623169 -4.6000000537084205 14.149999856929584
    vertex 16.700000047683716 -3.1999999583409804 14.149999856936002
  endloop
endfacet
facet normal 6.937898963782951e-17 -4.589034103241942e-12 1.0
  outer loop
    vertex 16.700000047683716 -3.1999999583409804 14.149999856936002
    vertex 15.400000810623169 -4.6000000537084205 14.149999856929584
    vertex 17.500001192092896 -4.000000149075853 14.149999856932325
  endloop
endfacet
facet normal 6.937898963782951e-17 -4.589034103241942e-12 1.0
  outer loop
    vertex 17.500001192092896 -4.000000149075853 14.149999856932325
    vertex 15.400000810623169 -4.6000000537084205 14.149999856929584
    vertex 17.500001192092896 -4.6000000537084205 14.149999856929584
  endloop
endfacet
facet normal 6.937898963782951e-17 -4.589034103241942e-12 1.0
  outer loop
    vertex 19.000001192092892 -0.4000000060247008 14.149999856948849
    vertex 19.000001192092892 0.5999999939752977 14.14999985695344
    vertex 16.700000047683716 -0.4000000060247008 14.149999856948849
  endloop
endfacet
facet normal 6.937898963782951e-17 -4.589034103241942e-12 1.0
  outer loop
    vertex 26.400000810623162 1.3999998558319093 14.149999856957107
    vertex 25.100001573562622 -0.4000000060247008 14.149999856948849
    vertex 26.400000810623162 -4.6000000537084205 14.149999856929584
  endloop
endfacet
facet normal 6.937898963782951e-17 -4.589034103241942e-12 1.0
  outer loop
    vertex 25.100001573562622 -0.4000000060247008 14.149999856948849
    vertex 26.400000810623162 1.3999998558319093 14.149999856957107
    vertex 20.200000047683716 0.5999999939752977 14.14999985695344
  endloop
endfacet
facet normal 6.937898963782951e-17 -4.589034103241942e-12 1.0
  outer loop
    vertex 20.200000047683716 0.5999999939752977 14.14999985695344
    vertex 26.400000810623162 1.3999998558319093 14.149999856957107
    vertex 19.000001192092892 0.5999999939752977 14.14999985695344
  endloop
endfacet
facet normal 6.937898963782951e-17 -4.589034103241942e-12 1.0
  outer loop
    vertex 25.100001573562622 -0.4000000060247008 14.149999856948849
    vertex 20.200000047683716 0.5999999939752977 14.14999985695344
    vertex 20.200000047683716 -0.4000000060247008 14.149999856948849
  endloop
endfacet
facet normal 6.937898963782951e-17 -4.589034103241942e-12 1.0
  outer loop
    vertex 26.400000810623162 -4.6000000537084205 14.149999856929584
    vertex 25.100001573562622 -0.4000000060247008 14.149999856948849
    vertex 25.100001573562622 -3.1999999583409804 14.149999856936002
  endloop
endfacet
facet normal 6.937898963782951e-17 -4.589034103241942e-12 1.0
  outer loop
    vertex 26.400000810623162 -4.6000000537084205 14.149999856929584
    vertex 25.100001573562622 -3.1999999583409804 14.149999856936002
    vertex 24.300002336502075 -4.000000149075853 14.149999856932325
  endloop
endfacet
facet normal 6.937898963782951e-17 -4.589034103241942e-12 1.0
  outer loop
    vertex 26.400000810623162 -4.6000000537084205 14.149999856929584
    vertex 24.300002336502075 -4.000000149075853 14.149999856932325
    vertex 24.300002336502075 -4.6000000537084205 14.149999856929584
  endloop
endfacet
facet normal -1.0 0.0 0.0
  outer loop
    vertex 15.400000810623169 -4.6000000537084205 14.149999856929584
    vertex 15.400000810623169 1.3999998558961437 0.14999985695710966
    vertex 15.400000810623169 -4.600000053644215 0.14999985692958678
  endloop
endfacet
facet normal -1.0 0.0 0.0
  outer loop
    vertex 15.400000810623169 1.3999998558961437 0.14999985695710966
    vertex 15.400000810623169 -4.6000000537084205 14.149999856929584
    vertex 15.400000810623169 1.399999855831915 14.149999856957107
  endloop
endfacet
facet normal 1.4425774283211426e-29 -1.0 -4.587781967252415e-12
  outer loop
    vertex 17.500001192092896 -4.600000053644215 0.14999985692958678
    vertex 15.400000810623169 -4.6000000537084205 14.149999856929584
    vertex 15.400000810623169 -4.600000053644215 0.14999985692958678
  endloop
endfacet
facet normal 1.4425774283211426e-29 -1.0 -4.587781967252415e-12
  outer loop
    vertex 15.400000810623169 -4.6000000537084205 14.149999856929584
    vertex 17.500001192092896 -4.600000053644215 0.14999985692958678
    vertex 17.500001192092896 -4.6000000537084205 14.149999856929584
  endloop
endfacet
facet normal 1.0 0.0 0.0
  outer loop
    vertex 17.500001192092896 -4.000000149075853 14.149999856932325
    vertex 17.500001192092896 -4.600000053644215 0.14999985692958678
    vertex 17.500001192092896 -4.0000001490116475 0.14999985693229395
  endloop
endfacet
facet normal 1.0 0.0 0.0
  outer loop
    vertex 17.500001192092896 -4.600000053644215 0.14999985692958678
    vertex 17.500001192092896 -4.000000149075853 14.149999856932325
    vertex 17.500001192092896 -4.6000000537084205 14.149999856929584
  endloop
endfacet
facet normal 0.7071063597182901 0.7071072026545538 3.242628715579412e-12
  outer loop
    vertex 17.500001192092896 -4.000000149075853 14.149999856932325
    vertex 16.700000047683716 -3.1999999582767895 0.14999985693594864
    vertex 16.700000047683716 -3.1999999583409804 14.149999856936002
  endloop
endfacet
facet normal 0.7071063597182901 0.7071072026545538 3.242628715579412e-12
  outer loop
    vertex 16.700000047683716 -3.1999999582767895 0.14999985693594864
    vertex 17.500001192092896 -4.000000149075853 14.149999856932325
    vertex 17.500001192092896 -4.0000001490116475 0.14999985693229395
  endloop
endfacet
facet normal 1.0 0.0 0.0
  outer loop
    vertex 16.700000047683716 -0.4000000059604641 0.14999985694884152
    vertex 16.700000047683716 -3.1999999583409804 14.149999856936002
    vertex 16.700000047683716 -3.1999999582767895 0.14999985693594864
  endloop
endfacet
facet normal 1.0 0.0 0.0
  outer loop
    vertex 16.700000047683716 -3.1999999583409804 14.149999856936002
    vertex 16.700000047683716 -0.4000000059604641 0.14999985694884152
    vertex 16.700000047683716 -0.4000000060247008 14.149999856948849
  endloop
endfacet
facet normal 1.2026015953344196e-29 -1.0 -4.587781967252415e-12
  outer loop
    vertex 19.000001192092892 -0.4000000059604641 0.14999985694884152
    vertex 16.700000047683716 -0.4000000060247008 14.149999856948849
    vertex 16.700000047683716 -0.4000000059604641 0.14999985694884152
  endloop
endfacet
facet normal 1.2026015953344196e-29 -1.0 -4.587781967252415e-12
  outer loop
    vertex 16.700000047683716 -0.4000000060247008 14.149999856948849
    vertex 19.000001192092892 -0.4000000059604641 0.14999985694884152
    vertex 19.000001192092892 -0.4000000060247008 14.149999856948849
  endloop
endfacet
facet normal 1.0 0.0 0.0
  outer loop
    vertex 19.000001192092892 -0.4000000060247008 14.149999856948849
    vertex 19.000001192092892 -0.4000000059604641 0.14999985694884152
    vertex 19.000001192092892 0.5999999940395352 0.1499998569534437
  endloop
endfacet
facet normal 1.0 0.0 0.0
  outer loop
    vertex 19.000001192092892 -0.4000000060247008 14.149999856948849
    vertex 19.000001192092892 0.5999999940395352 0.1499998569534437
    vertex 19.000001192092892 0.5999999939752977 14.14999985695344
  endloop
endfacet
facet normal 0.0 -1.0 -4.587781967255724e-12
  outer loop
    vertex 20.200000047683716 0.5999999940395352 0.1499998569534437
    vertex 19.000001192092892 0.5999999939752977 14.14999985695344
    vertex 19.000001192092892 0.5999999940395352 0.1499998569534437
  endloop
endfacet
facet normal 0.0 -1.0 -4.587781967255724e-12
  outer loop
    vertex 19.000001192092892 0.5999999939752977 14.14999985695344
    vertex 20.200000047683716 0.5999999940395352 0.1499998569534437
    vertex 20.200000047683716 0.5999999939752977 14.14999985695344
  endloop
endfacet
facet normal -1.0 -0.0 0.0
  outer loop
    vertex 20.200000047683716 -0.4000000060247008 14.149999856948849
    vertex 20.200000047683716 0.5999999940395352 0.1499998569534437
    vertex 20.200000047683716 -0.4000000059604641 0.14999985694884152
  endloop
endfacet
facet normal -1.0 -0.0 0.0
  outer loop
    vertex 20.200000047683716 0.5999999940395352 0.1499998569534437
    vertex 20.200000047683716 -0.4000000060247008 14.149999856948849
    vertex 20.200000047683716 0.5999999939752977 14.14999985695344
  endloop
endfacet
facet normal 2.6496313236143296e-30 -1.0 -4.587781967252415e-12
  outer loop
    vertex 25.100001573562622 -0.4000000059604641 0.14999985694884152
    vertex 20.200000047683716 -0.4000000060247008 14.149999856948849
    vertex 20.200000047683716 -0.4000000059604641 0.14999985694884152
  endloop
endfacet
facet normal 2.6496313236143296e-30 -1.0 -4.587781967252415e-12
  outer loop
    vertex 20.200000047683716 -0.4000000060247008 14.149999856948849
    vertex 25.100001573562622 -0.4000000059604641 0.14999985694884152
    vertex 25.100001573562622 -0.4000000060247008 14.149999856948849
  endloop
endfacet
facet normal -1.0 -0.0 0.0
  outer loop
    vertex 25.100001573562622 -3.1999999583409804 14.149999856936002
    vertex 25.100001573562622 -0.4000000059604641 0.14999985694884152
    vertex 25.100001573562622 -3.1999999582767895 0.14999985693594864
  endloop
endfacet
facet normal -1.0 -0.0 0.0
  outer loop
    vertex 25.100001573562622 -0.4000000059604641 0.14999985694884152
    vertex 25.100001573562622 -3.1999999583409804 14.149999856936002
    vertex 25.100001573562622 -0.4000000060247008 14.149999856948849
  endloop
endfacet
facet normal -0.7071072026550588 0.7071063597177852 3.2426261355748285e-12
  outer loop
    vertex 24.300002336502075 -4.0000001490116475 0.14999985693229395
    vertex 25.100001573562622 -3.1999999583409804 14.149999856936002
    vertex 25.100001573562622 -3.1999999582767895 0.14999985693594864
  endloop
endfacet
facet normal -0.7071072026550588 0.7071063597177852 3.2426261355748285e-12
  outer loop
    vertex 25.100001573562622 -3.1999999583409804 14.149999856936002
    vertex 24.300002336502075 -4.0000001490116475 0.14999985693229395
    vertex 24.300002336502075 -4.000000149075853 14.149999856932325
  endloop
endfacet
facet normal -1.0 -0.0 0.0
  outer loop
    vertex 24.300002336502075 -4.600000053644215 0.14999985692958678
    vertex 24.300002336502075 -4.000000149075853 14.149999856932325
    vertex 24.300002336502075 -4.0000001490116475 0.14999985693229395
  endloop
endfacet
facet normal -1.0 -0.0 0.0
  outer loop
    vertex 24.300002336502075 -4.000000149075853 14.149999856932325
    vertex 24.300002336502075 -4.600000053644215 0.14999985692958678
    vertex 24.300002336502075 -4.6000000537084205 14.149999856929584
  endloop
endfacet
facet normal 0.0 -1.0 -4.586071205332183e-12
  outer loop
    vertex 26.400000810623162 -4.600000053644215 0.14999985692958678
    vertex 24.300002336502075 -4.6000000537084205 14.149999856929584
    vertex 24.300002336502075 -4.600000053644215 0.14999985692958678
  endloop
endfacet
facet normal 0.0 -1.0 -4.586071205332183e-12
  outer loop
    vertex 24.300002336502075 -4.6000000537084205 14.149999856929584
    vertex 26.400000810623162 -4.600000053644215 0.14999985692958678
    vertex 26.400000810623162 -4.6000000537084205 14.149999856929584
  endloop
endfacet
facet normal 1.184040636930578e-16 4.590386796542681e-12 -1.0
  outer loop
    vertex 15.400000810623169 1.3999998558961437 0.14999985695710966
    vertex 16.700000047683716 -0.4000000059604641 0.14999985694884152
    vertex 15.400000810623169 -4.600000053644215 0.14999985692958678
  endloop
endfacet
facet normal 1.184040636930578e-16 4.590386796542681e-12 -1.0
  outer loop
    vertex 16.700000047683716 -0.4000000059604641 0.14999985694884152
    vertex 15.400000810623169 1.3999998558961437 0.14999985695710966
    vertex 19.000001192092892 0.5999999940395352 0.1499998569534437
  endloop
endfacet
facet normal 1.184040636930578e-16 4.590386796542681e-12 -1.0
  outer loop
    vertex 19.000001192092892 0.5999999940395352 0.1499998569534437
    vertex 15.400000810623169 1.3999998558961437 0.14999985695710966
    vertex 26.400000810623162 1.399999855896137 0.14999985695712093
  endloop
endfacet
facet normal 1.184040636930578e-16 4.590386796542681e-12 -1.0
  outer loop
    vertex 19.000001192092892 0.5999999940395352 0.1499998569534437
    vertex 26.400000810623162 1.399999855896137 0.14999985695712093
    vertex 20.200000047683716 0.5999999940395352 0.1499998569534437
  endloop
endfacet
facet normal 1.184040636930578e-16 4.590386796542681e-12 -1.0
  outer loop
    vertex 16.700000047683716 -0.4000000059604641 0.14999985694884152
    vertex 19.000001192092892 0.5999999940395352 0.1499998569534437
    vertex 19.000001192092892 -0.4000000059604641 0.14999985694884152
  endloop
endfacet
facet normal 1.184040636930578e-16 4.590386796542681e-12 -1.0
  outer loop
    vertex 15.400000810623169 -4.600000053644215 0.14999985692958678
    vertex 16.700000047683716 -0.4000000059604641 0.14999985694884152
    vertex 16.700000047683716 -3.1999999582767895 0.14999985693594864
  endloop
endfacet
facet normal 1.184040636930578e-16 4.590386796542681e-12 -1.0
  outer loop
    vertex 15.400000810623169 -4.600000053644215 0.14999985692958678
    vertex 16.700000047683716 -3.1999999582767895 0.14999985693594864
    vertex 17.500001192092896 -4.0000001490116475 0.14999985693229395
  endloop
endfacet
facet normal 1.184040636930578e-16 4.590386796542681e-12 -1.0
  outer loop
    vertex 15.400000810623169 -4.600000053644215 0.14999985692958678
    vertex 17.500001192092896 -4.0000001490116475 0.14999985693229395
    vertex 17.500001192092896 -4.600000053644215 0.14999985692958678
  endloop
endfacet
facet normal 1.184040636930578e-16 4.590386796542681e-12 -1.0
  outer loop
    vertex 26.400000810623162 1.399999855896137 0.14999985695712093
    vertex 25.100001573562622 -0.4000000059604641 0.14999985694884152
    vertex 20.200000047683716 0.5999999940395352 0.1499998569534437
  endloop
endfacet
facet normal 1.184040636930578e-16 4.590386796542681e-12 -1.0
  outer loop
    vertex 25.100001573562622 -0.4000000059604641 0.14999985694884152
    vertex 26.400000810623162 1.399999855896137 0.14999985695712093
    vertex 26.400000810623162 -4.600000053644215 0.14999985692958678
  endloop
endfacet
facet normal 1.184040636930578e-16 4.590386796542681e-12 -1.0
  outer loop
    vertex 25.100001573562622 -0.4000000059604641 0.14999985694884152
    vertex 26.400000810623162 -4.600000053644215 0.14999985692958678
    vertex 25.100001573562622 -3.1999999582767895 0.14999985693594864
  endloop
endfacet
facet normal 1.184040636930578e-16 4.590386796542681e-12 -1.0
  outer loop
    vertex 25.100001573562622 -3.1999999582767895 0.14999985693594864
    vertex 26.400000810623162 -4.600000053644215 0.14999985692958678
    vertex 24.300002336502075 -4.0000001490116475 0.14999985693229395
  endloop
endfacet
facet normal 1.184040636930578e-16 4.590386796542681e-12 -1.0
  outer loop
    vertex 24.300002336502075 -4.0000001490116475 0.14999985693229395
    vertex 26.400000810623162 -4.600000053644215 0.14999985692958678
    vertex 24.300002336502075 -4.600000053644215 0.14999985692958678
  endloop
endfacet
facet normal 1.184040636930578e-16 4.590386796542681e-12 -1.0
  outer loop
    vertex 20.200000047683716 -0.4000000059604641 0.14999985694884152
    vertex 20.200000047683716 0.5999999940395352 0.1499998569534437
    vertex 25.100001573562622 -0.4000000059604641 0.14999985694884152
  endloop
endfacet
facet normal 5.527775207258349e-16 1.0 4.5877266767270675e-12
  outer loop
    vertex 26.400000810623162 1.3999998558319093 14.149999856957107
    vertex 15.400000810623169 1.3999998558961437 0.14999985695710966
    vertex 15.400000810623169 1.399999855831915 14.149999856957107
  endloop
endfacet
facet normal 5.527775207258349e-16 1.0 4.5877266767270675e-12
  outer loop
    vertex 15.400000810623169 1.3999998558961437 0.14999985695710966
    vertex 26.400000810623162 1.3999998558319093 14.149999856957107
    vertex 26.400000810623162 1.399999855896137 0.14999985695712093
  endloop
endfacet
facet normal 1.0 0.0 0.0
  outer loop
    vertex 26.400000810623162 1.399999855896137 0.14999985695712093
    vertex 26.400000810623162 -4.6000000537084205 14.149999856929584
    vertex 26.400000810623162 -4.600000053644215 0.14999985692958678
  endloop
endfacet
facet normal 1.0 0.0 0.0
  outer loop
    vertex 26.400000810623162 -4.6000000537084205 14.149999856929584
    vertex 26.400000810623162 1.399999855896137 0.14999985695712093
    vertex 26.400000810623162 1.3999998558319093 14.149999856957107
  endloop
endfacet
endsolid Icebot_pin02
