solid Icebot_pin02
facet normal -5.819097542479008e-17 -4.589260755920919e-12 1.0
  outer loop
    vertex -0.5999991893768316 1.399999855831916 14.149999856957129
    vertex 3.000001192092897 0.5999999939752977 14.14999985695344
    vertex 42.400000810623155 1.3999998558319051 14.149999856957129
  endloop
endfacet
facet normal -5.819097542479008e-17 -4.589260755920919e-12 1.0
  outer loop
    vertex 3.000001192092897 0.5999999939752977 14.14999985695344
    vertex -0.5999991893768316 1.399999855831916 14.149999856957129
    vertex 0.7000010013580329 -0.4000000060247008 14.149999856948849
  endloop
endfacet
facet normal -5.819097542479008e-17 -4.589260755920919e-12 1.0
  outer loop
    vertex 0.7000010013580329 -0.4000000060247008 14.149999856948849
    vertex -0.5999991893768316 1.399999855831916 14.149999856957129
    vertex -0.5999991893768302 -4.6000000537084205 14.149999856929584
  endloop
endfacet
facet normal -5.819097542479008e-17 -4.589260755920919e-12 1.0
  outer loop
    vertex 0.7000010013580329 -0.4000000060247008 14.149999856948849
    vertex -0.5999991893768302 -4.6000000537084205 14.149999856929584
    vertex 0.7000010013580329 -3.1999999583409804 14.149999856936002
  endloop
endfacet
facet normal -5.819097542479008e-17 -4.589260755920919e-12 1.0
  outer loop
    vertex 0.7000010013580329 -3.1999999583409804 14.149999856936002
    vertex -0.5999991893768302 -4.6000000537084205 14.149999856929584
    vertex 1.5000011920928968 -4.000000149075853 14.149999856932325
  endloop
endfacet
facet normal -5.819097542479008e-17 -4.589260755920919e-12 1.0
  outer loop
    vertex 1.5000011920928968 -4.000000149075853 14.149999856932325
    vertex -0.5999991893768302 -4.6000000537084205 14.149999856929584
    vertex 1.5000011920928968 -4.6000000537084205 14.149999856929584
  endloop
endfacet
facet normal -5.819097542479008e-17 -4.589260755920919e-12 1.0
  outer loop
    vertex 3.000001192092897 -0.4000000060247008 14.149999856948849
    vertex 3.000001192092897 0.5999999939752977 14.14999985695344
    vertex 0.7000010013580329 -0.4000000060247008 14.149999856948849
  endloop
endfacet
facet normal -5.819097542479008e-17 -4.589260755920919e-12 1.0
  outer loop
    vertex 9.100001573562622 -3.1999999583409804 14.149999856936002
    vertex 10.400000810623169 -0.4000000060247008 14.149999856948849
    vertex 9.100001573562622 -0.4000000060247008 14.149999856948849
  endloop
endfacet
facet normal -5.819097542479008e-17 -4.589260755920919e-12 1.0
  outer loop
    vertex 10.400000810623169 -0.4000000060247008 14.149999856948849
    vertex 9.100001573562622 -3.1999999583409804 14.149999856936002
    vertex 10.400000810623169 -4.6000000537084205 14.149999856929584
  endloop
endfacet
facet normal -5.819097542479008e-17 -4.589260755920919e-12 1.0
  outer loop
    vertex 10.400000810623169 -4.6000000537084205 14.149999856929584
    vertex 9.100001573562622 -3.1999999583409804 14.149999856936002
    vertex 8.300000429153442 -4.000000149075853 14.149999856932325
  endloop
endfacet
facet normal -5.819097542479008e-17 -4.589260755920919e-12 1.0
  outer loop
    vertex 10.400000810623169 -4.6000000537084205 14.149999856929584
    vertex 8.300000429153442 -4.000000149075853 14.149999856932325
    vertex 8.300000429153442 -4.6000000537084205 14.149999856929584
  endloop
endfacet
facet normal -5.819097542479008e-17 -4.589260755920919e-12 1.0
  outer loop
    vertex 15.400000810623169 -4.6000000537084205 14.149999856929584
    vertex 16.700000047683716 -0.4000000060247008 14.149999856948849
    vertex 15.400000810623169 -0.4000000060247008 14.149999856948849
  endloop
endfacet
facet normal -5.819097542479008e-17 -4.589260755920919e-12 1.0
  outer loop
    vertex 16.700000047683716 -0.4000000060247008 14.149999856948849
    vertex 15.400000810623169 -4.6000000537084205 14.149999856929584
    vertex 16.700000047683716 -3.1999999583409804 14.149999856936002
  endloop
endfacet
facet normal -5.819097542479008e-17 -4.589260755920919e-12 1.0
  outer loop
    vertex 16.700000047683716 -3.1999999583409804 14.149999856936002
    vertex 15.400000810623169 -4.6000000537084205 14.149999856929584
    vertex 17.500001192092896 -4.000000149075853 14.149999856932325
  endloop
endfacet
facet normal -5.819097542479008e-17 -4.589260755920919e-12 1.0
  outer loop
    vertex 17.500001192092896 -4.000000149075853 14.149999856932325
    vertex 15.400000810623169 -4.6000000537084205 14.149999856929584
    vertex 17.500001192092896 -4.6000000537084205 14.149999856929584
  endloop
endfacet
facet normal -5.819097542479008e-17 -4.589260755920919e-12 1.0
  outer loop
    vertex 4.200001001358032 -0.4000000060247008 14.149999856948849
    vertex 19.000001192092892 0.5999999939752977 14.14999985695344
    vertex 4.200001001358032 0.5999999939752977 14.14999985695344
  endloop
endfacet
facet normal -5.819097542479008e-17 -4.589260755920919e-12 1.0
  outer loop
    vertex 19.000001192092892 0.5999999939752977 14.14999985695344
    vertex 4.200001001358032 -0.4000000060247008 14.149999856948849
    vertex 19.000001192092892 -0.4000000060247008 14.149999856948849
  endloop
endfacet
facet normal -5.819097542479008e-17 -4.589260755920919e-12 1.0
  outer loop
    vertex 19.000001192092892 -0.4000000060247008 14.149999856948849
    vertex 4.200001001358032 -0.4000000060247008 14.149999856948849
    vertex 9.100001573562622 -0.4000000060247008 14.149999856948849
  endloop
endfacet
facet normal -5.819097542479008e-17 -4.589260755920919e-12 1.0
  outer loop
    vertex 19.000001192092892 -0.4000000060247008 14.149999856948849
    vertex 9.100001573562622 -0.4000000060247008 14.149999856948849
    vertex 10.400000810623169 -0.4000000060247008 14.149999856948849
  endloop
endfacet
facet normal -5.819097542479008e-17 -4.589260755920919e-12 1.0
  outer loop
    vertex 19.000001192092892 -0.4000000060247008 14.149999856948849
    vertex 10.400000810623169 -0.4000000060247008 14.149999856948849
    vertex 15.400000810623169 -0.4000000060247008 14.149999856948849
  endloop
endfacet
facet normal -5.819097542479008e-17 -4.589260755920919e-12 1.0
  outer loop
    vertex 19.000001192092892 -0.4000000060247008 14.149999856948849
    vertex 15.400000810623169 -0.4000000060247008 14.149999856948849
    vertex 16.700000047683716 -0.4000000060247008 14.149999856948849
  endloop
endfacet
facet normal -5.819097542479008e-17 -4.589260755920919e-12 1.0
  outer loop
    vertex 25.100001573562622 -3.1999999583409804 14.149999856936002
    vertex 26.400000810623162 -0.4000000060247008 14.149999856948849
    vertex 25.100001573562622 -0.4000000060247008 14.149999856948849
  endloop
endfacet
facet normal -5.819097542479008e-17 -4.589260755920919e-12 1.0
  outer loop
    vertex 26.400000810623162 -0.4000000060247008 14.149999856948849
    vertex 25.100001573562622 -3.1999999583409804 14.149999856936002
    vertex 26.400000810623162 -4.6000000537084205 14.149999856929584
  endloop
endfacet
facet normal -5.819097542479008e-17 -4.589260755920919e-12 1.0
  outer loop
    vertex 26.400000810623162 -4.6000000537084205 14.149999856929584
    vertex 25.100001573562622 -3.1999999583409804 14.149999856936002
    vertex 24.300002336502075 -4.000000149075853 14.149999856932325
  endloop
endfacet
facet normal -5.819097542479008e-17 -4.589260755920919e-12 1.0
  outer loop
    vertex 26.400000810623162 -4.6000000537084205 14.149999856929584
    vertex 24.300002336502075 -4.000000149075853 14.149999856932325
    vertex 24.300002336502075 -4.6000000537084205 14.149999856929584
  endloop
endfacet
facet normal -5.819097542479008e-17 -4.589260755920919e-12 1.0
  outer loop
    vertex 31.400000810623165 -4.6000000537084205 14.149999856929584
    vertex 32.70000004768371 -0.4000000060247008 14.149999856948849
    vertex 31.400000810623165 -0.4000000060247008 14.149999856948849
  endloop
endfacet
facet normal -5.819097542479008e-17 -4.589260755920919e-12 1.0
  outer loop
    vertex 32.70000004768371 -0.4000000060247008 14.149999856948849
    vertex 31.400000810623165 -4.6000000537084205 14.149999856929584
    vertex 32.70000004768371 -3.1999999583409804 14.149999856936002
  endloop
endfacet
facet normal -5.819097542479008e-17 -4.589260755920919e-12 1.0
  outer loop
    vertex 32.70000004768371 -3.1999999583409804 14.149999856936002
    vertex 31.400000810623165 -4.6000000537084205 14.149999856929584
    vertex 33.50000119209289 -4.000000149075853 14.149999856932325
  endloop
endfacet
facet normal -5.819097542479008e-17 -4.589260755920919e-12 1.0
  outer loop
    vertex 33.50000119209289 -4.000000149075853 14.149999856932325
    vertex 31.400000810623165 -4.6000000537084205 14.149999856929584
    vertex 33.50000119209289 -4.6000000537084205 14.149999856929584
  endloop
endfacet
facet normal -5.819097542479008e-17 -4.589260755920919e-12 1.0
  outer loop
    vertex 20.200000047683716 -0.4000000060247008 14.149999856948849
    vertex 35.00000119209288 0.5999999939752977 14.14999985695344
    vertex 20.200000047683716 0.5999999939752977 14.14999985695344
  endloop
endfacet
facet normal -5.819097542479008e-17 -4.589260755920919e-12 1.0
  outer loop
    vertex 35.00000119209288 0.5999999939752977 14.14999985695344
    vertex 20.200000047683716 -0.4000000060247008 14.149999856948849
    vertex 35.00000119209288 -0.4000000060247008 14.149999856948849
  endloop
endfacet
facet normal -5.819097542479008e-17 -4.589260755920919e-12 1.0
  outer loop
    vertex 35.00000119209288 -0.4000000060247008 14.149999856948849
    vertex 20.200000047683716 -0.4000000060247008 14.149999856948849
    vertex 25.100001573562622 -0.4000000060247008 14.149999856948849
  endloop
endfacet
facet normal -5.819097542479008e-17 -4.589260755920919e-12 1.0
  outer loop
    vertex 35.00000119209288 -0.4000000060247008 14.149999856948849
    vertex 25.100001573562622 -0.4000000060247008 14.149999856948849
    vertex 26.400000810623162 -0.4000000060247008 14.149999856948849
  endloop
endfacet
facet normal -5.819097542479008e-17 -4.589260755920919e-12 1.0
  outer loop
    vertex 35.00000119209288 -0.4000000060247008 14.149999856948849
    vertex 26.400000810623162 -0.4000000060247008 14.149999856948849
    vertex 31.400000810623165 -0.4000000060247008 14.149999856948849
  endloop
endfacet
facet normal -5.819097542479008e-17 -4.589260755920919e-12 1.0
  outer loop
    vertex 35.00000119209288 -0.4000000060247008 14.149999856948849
    vertex 31.400000810623165 -0.4000000060247008 14.149999856948849
    vertex 32.70000004768371 -0.4000000060247008 14.149999856948849
  endloop
endfacet
facet normal -5.819097542479008e-17 -4.589260755920919e-12 1.0
  outer loop
    vertex 42.400000810623155 1.3999998558319051 14.149999856957129
    vertex 41.10000157356262 -0.4000000060247008 14.149999856948849
    vertex 42.400000810623155 -4.6000000537084205 14.149999856929584
  endloop
endfacet
facet normal -5.819097542479008e-17 -4.589260755920919e-12 1.0
  outer loop
    vertex 41.10000157356262 -0.4000000060247008 14.149999856948849
    vertex 42.400000810623155 1.3999998558319051 14.149999856957129
    vertex 36.20000004768371 0.5999999939752977 14.14999985695344
  endloop
endfacet
facet normal -5.819097542479008e-17 -4.589260755920919e-12 1.0
  outer loop
    vertex 36.20000004768371 0.5999999939752977 14.14999985695344
    vertex 42.400000810623155 1.3999998558319051 14.149999856957129
    vertex 3.000001192092897 0.5999999939752977 14.14999985695344
  endloop
endfacet
facet normal -5.819097542479008e-17 -4.589260755920919e-12 1.0
  outer loop
    vertex 36.20000004768371 0.5999999939752977 14.14999985695344
    vertex 3.000001192092897 0.5999999939752977 14.14999985695344
    vertex 4.200001001358032 0.5999999939752977 14.14999985695344
  endloop
endfacet
facet normal -5.819097542479008e-17 -4.589260755920919e-12 1.0
  outer loop
    vertex 36.20000004768371 0.5999999939752977 14.14999985695344
    vertex 4.200001001358032 0.5999999939752977 14.14999985695344
    vertex 19.000001192092892 0.5999999939752977 14.14999985695344
  endloop
endfacet
facet normal -5.819097542479008e-17 -4.589260755920919e-12 1.0
  outer loop
    vertex 36.20000004768371 0.5999999939752977 14.14999985695344
    vertex 19.000001192092892 0.5999999939752977 14.14999985695344
    vertex 20.200000047683716 0.5999999939752977 14.14999985695344
  endloop
endfacet
facet normal -5.819097542479008e-17 -4.589260755920919e-12 1.0
  outer loop
    vertex 36.20000004768371 0.5999999939752977 14.14999985695344
    vertex 20.200000047683716 0.5999999939752977 14.14999985695344
    vertex 35.00000119209288 0.5999999939752977 14.14999985695344
  endloop
endfacet
facet normal -5.819097542479008e-17 -4.589260755920919e-12 1.0
  outer loop
    vertex 41.10000157356262 -0.4000000060247008 14.149999856948849
    vertex 36.20000004768371 0.5999999939752977 14.14999985695344
    vertex 36.20000004768371 -0.4000000060247008 14.149999856948849
  endloop
endfacet
facet normal -5.819097542479008e-17 -4.589260755920919e-12 1.0
  outer loop
    vertex 42.400000810623155 -4.6000000537084205 14.149999856929584
    vertex 41.10000157356262 -0.4000000060247008 14.149999856948849
    vertex 41.10000157356262 -3.1999999583409804 14.149999856936002
  endloop
endfacet
facet normal -5.819097542479008e-17 -4.589260755920919e-12 1.0
  outer loop
    vertex 42.400000810623155 -4.6000000537084205 14.149999856929584
    vertex 41.10000157356262 -3.1999999583409804 14.149999856936002
    vertex 40.30000233650207 -4.000000149075853 14.149999856932325
  endloop
endfacet
facet normal -5.819097542479008e-17 -4.589260755920919e-12 1.0
  outer loop
    vertex 42.400000810623155 -4.6000000537084205 14.149999856929584
    vertex 40.30000233650207 -4.000000149075853 14.149999856932325
    vertex 40.30000233650207 -4.6000000537084205 14.149999856929584
  endloop
endfacet
facet normal -1.0 -0.0 0.0
  outer loop
    vertex -0.5999991893768302 -4.6000000537084205 14.149999856929584
    vertex -0.5999991893768316 1.3999998558961533 0.14999985695712093
    vertex -0.5999991893768302 -4.600000053644215 0.14999985692958678
  endloop
endfacet
facet normal -1.0 -0.0 0.0
  outer loop
    vertex -0.5999991893768316 1.3999998558961533 0.14999985695712093
    vertex -0.5999991893768302 -4.6000000537084205 14.149999856929584
    vertex -0.5999991893768316 1.399999855831916 14.149999856957129
  endloop
endfacet
facet normal 0.0 -1.0 -4.587781967252415e-12
  outer loop
    vertex 1.5000011920928968 -4.600000053644215 0.14999985692958678
    vertex -0.5999991893768302 -4.6000000537084205 14.149999856929584
    vertex -0.5999991893768302 -4.600000053644215 0.14999985692958678
  endloop
endfacet
facet normal 0.0 -1.0 -4.587781967252415e-12
  outer loop
    vertex -0.5999991893768302 -4.6000000537084205 14.149999856929584
    vertex 1.5000011920928968 -4.600000053644215 0.14999985692958678
    vertex 1.5000011920928968 -4.6000000537084205 14.149999856929584
  endloop
endfacet
facet normal 1.0 0.0 0.0
  outer loop
    vertex 1.5000011920928968 -4.000000149075853 14.149999856932325
    vertex 1.5000011920928968 -4.600000053644215 0.14999985692958678
    vertex 1.5000011920928968 -4.0000001490116475 0.14999985693229395
  endloop
endfacet
facet normal 1.0 0.0 0.0
  outer loop
    vertex 1.5000011920928968 -4.600000053644215 0.14999985692958678
    vertex 1.5000011920928968 -4.000000149075853 14.149999856932325
    vertex 1.5000011920928968 -4.6000000537084205 14.149999856929584
  endloop
endfacet
facet normal 0.7071067811865489 0.7071067811865462 3.2426274255796755e-12
  outer loop
    vertex 0.7000010013580329 -3.1999999582767895 0.14999985693598247
    vertex 1.5000011920928968 -4.000000149075853 14.149999856932325
    vertex 1.5000011920928968 -4.0000001490116475 0.14999985693229395
  endloop
endfacet
facet normal 0.7071067811865489 0.7071067811865462 3.2426274255796755e-12
  outer loop
    vertex 1.5000011920928968 -4.000000149075853 14.149999856932325
    vertex 0.7000010013580329 -3.1999999582767895 0.14999985693598247
    vertex 0.7000010013580329 -3.1999999583409804 14.149999856936002
  endloop
endfacet
facet normal 1.0 0.0 0.0
  outer loop
    vertex 0.7000010013580329 -0.4000000059604641 0.14999985694884152
    vertex 0.7000010013580329 -3.1999999583409804 14.149999856936002
    vertex 0.7000010013580329 -3.1999999582767895 0.14999985693598247
  endloop
endfacet
facet normal 1.0 0.0 0.0
  outer loop
    vertex 0.7000010013580329 -3.1999999583409804 14.149999856936002
    vertex 0.7000010013580329 -0.4000000059604641 0.14999985694884152
    vertex 0.7000010013580329 -0.4000000060247008 14.149999856948849
  endloop
endfacet
facet normal 0.0 -1.0 -4.587781967252415e-12
  outer loop
    vertex 3.000001192092897 -0.4000000059604641 0.14999985694884152
    vertex 0.7000010013580329 -0.4000000060247008 14.149999856948849
    vertex 0.7000010013580329 -0.4000000059604641 0.14999985694884152
  endloop
endfacet
facet normal 0.0 -1.0 -4.587781967252415e-12
  outer loop
    vertex 0.7000010013580329 -0.4000000060247008 14.149999856948849
    vertex 3.000001192092897 -0.4000000059604641 0.14999985694884152
    vertex 3.000001192092897 -0.4000000060247008 14.149999856948849
  endloop
endfacet
facet normal 1.0 0.0 0.0
  outer loop
    vertex 3.000001192092897 0.5999999940395352 0.1499998569534437
    vertex 3.000001192092897 -0.4000000060247008 14.149999856948849
    vertex 3.000001192092897 -0.4000000059604641 0.14999985694884152
  endloop
endfacet
facet normal 1.0 0.0 0.0
  outer loop
    vertex 3.000001192092897 -0.4000000060247008 14.149999856948849
    vertex 3.000001192092897 0.5999999940395352 0.1499998569534437
    vertex 3.000001192092897 0.5999999939752977 14.14999985695344
  endloop
endfacet
facet normal 0.0 -1.0 -4.587781967252415e-12
  outer loop
    vertex 4.200001001358032 0.5999999940395352 0.1499998569534437
    vertex 3.000001192092897 0.5999999939752977 14.14999985695344
    vertex 3.000001192092897 0.5999999940395352 0.1499998569534437
  endloop
endfacet
facet normal 0.0 -1.0 -4.587781967252415e-12
  outer loop
    vertex 3.000001192092897 0.5999999939752977 14.14999985695344
    vertex 4.200001001358032 0.5999999940395352 0.1499998569534437
    vertex 4.200001001358032 0.5999999939752977 14.14999985695344
  endloop
endfacet
facet normal -1.0 -0.0 0.0
  outer loop
    vertex 4.200001001358032 -0.4000000060247008 14.149999856948849
    vertex 4.200001001358032 0.5999999940395352 0.1499998569534437
    vertex 4.200001001358032 -0.4000000059604641 0.14999985694884152
  endloop
endfacet
facet normal -1.0 -0.0 0.0
  outer loop
    vertex 4.200001001358032 0.5999999940395352 0.1499998569534437
    vertex 4.200001001358032 -0.4000000060247008 14.149999856948849
    vertex 4.200001001358032 0.5999999939752977 14.14999985695344
  endloop
endfacet
facet normal 0.0 -1.0 -4.587781967252415e-12
  outer loop
    vertex 9.100001573562622 -0.4000000059604641 0.14999985694884152
    vertex 4.200001001358032 -0.4000000060247008 14.149999856948849
    vertex 4.200001001358032 -0.4000000059604641 0.14999985694884152
  endloop
endfacet
facet normal 0.0 -1.0 -4.587781967252415e-12
  outer loop
    vertex 4.200001001358032 -0.4000000060247008 14.149999856948849
    vertex 9.100001573562622 -0.4000000059604641 0.14999985694884152
    vertex 9.100001573562622 -0.4000000060247008 14.149999856948849
  endloop
endfacet
facet normal -1.0 -0.0 0.0
  outer loop
    vertex 9.100001573562622 -3.1999999583409804 14.149999856936002
    vertex 9.100001573562622 -0.4000000059604641 0.14999985694884152
    vertex 9.100001573562622 -3.1999999582767895 0.14999985693598247
  endloop
endfacet
facet normal -1.0 -0.0 0.0
  outer loop
    vertex 9.100001573562622 -0.4000000059604641 0.14999985694884152
    vertex 9.100001573562622 -3.1999999583409804 14.149999856936002
    vertex 9.100001573562622 -0.4000000060247008 14.149999856948849
  endloop
endfacet
facet normal -0.7071063597182901 0.7071072026545538 3.2426327532068006e-12
  outer loop
    vertex 9.100001573562622 -3.1999999583409804 14.149999856936002
    vertex 8.300000429153442 -4.0000001490116475 0.14999985693229395
    vertex 8.300000429153442 -4.000000149075853 14.149999856932325
  endloop
endfacet
facet normal -0.7071063597182901 0.7071072026545538 3.2426327532068006e-12
  outer loop
    vertex 8.300000429153442 -4.0000001490116475 0.14999985693229395
    vertex 9.100001573562622 -3.1999999583409804 14.149999856936002
    vertex 9.100001573562622 -3.1999999582767895 0.14999985693598247
  endloop
endfacet
facet normal -1.0 -0.0 0.0
  outer loop
    vertex 8.300000429153442 -4.600000053644215 0.14999985692958678
    vertex 8.300000429153442 -4.000000149075853 14.149999856932325
    vertex 8.300000429153442 -4.0000001490116475 0.14999985693229395
  endloop
endfacet
facet normal -1.0 -0.0 0.0
  outer loop
    vertex 8.300000429153442 -4.000000149075853 14.149999856932325
    vertex 8.300000429153442 -4.600000053644215 0.14999985692958678
    vertex 8.300000429153442 -4.6000000537084205 14.149999856929584
  endloop
endfacet
facet normal 0.0 -1.0 -4.587781967252415e-12
  outer loop
    vertex 10.400000810623169 -4.600000053644215 0.14999985692958678
    vertex 8.300000429153442 -4.6000000537084205 14.149999856929584
    vertex 8.300000429153442 -4.600000053644215 0.14999985692958678
  endloop
endfacet
facet normal 0.0 -1.0 -4.587781967252415e-12
  outer loop
    vertex 8.300000429153442 -4.6000000537084205 14.149999856929584
    vertex 10.400000810623169 -4.600000053644215 0.14999985692958678
    vertex 10.400000810623169 -4.6000000537084205 14.149999856929584
  endloop
endfacet
facet normal -1.0 -0.0 0.0
  outer loop
    vertex 15.400000810623169 -4.600000053644215 0.14999985692958678
    vertex 15.400000810623169 -0.4000000060247008 14.149999856948849
    vertex 15.400000810623169 -0.4000000059604641 0.14999985694884152
  endloop
endfacet
facet normal -1.0 -0.0 0.0
  outer loop
    vertex 15.400000810623169 -0.4000000060247008 14.149999856948849
    vertex 15.400000810623169 -4.600000053644215 0.14999985692958678
    vertex 15.400000810623169 -4.6000000537084205 14.149999856929584
  endloop
endfacet
facet normal 1.4425774283211426e-29 -1.0 -4.587781967252415e-12
  outer loop
    vertex 17.500001192092896 -4.600000053644215 0.14999985692958678
    vertex 15.400000810623169 -4.6000000537084205 14.149999856929584
    vertex 15.400000810623169 -4.600000053644215 0.14999985692958678
  endloop
endfacet
facet normal 1.4425774283211426e-29 -1.0 -4.587781967252415e-12
  outer loop
    vertex 15.400000810623169 -4.6000000537084205 14.149999856929584
    vertex 17.500001192092896 -4.600000053644215 0.14999985692958678
    vertex 17.500001192092896 -4.6000000537084205 14.149999856929584
  endloop
endfacet
facet normal 1.0 0.0 0.0
  outer loop
    vertex 17.500001192092896 -4.000000149075853 14.149999856932325
    vertex 17.500001192092896 -4.600000053644215 0.14999985692958678
    vertex 17.500001192092896 -4.0000001490116475 0.14999985693229395
  endloop
endfacet
facet normal 1.0 0.0 0.0
  outer loop
    vertex 17.500001192092896 -4.600000053644215 0.14999985692958678
    vertex 17.500001192092896 -4.000000149075853 14.149999856932325
    vertex 17.500001192092896 -4.6000000537084205 14.149999856929584
  endloop
endfacet
facet normal 0.7071063597182901 0.7071072026545538 3.242628715579412e-12
  outer loop
    vertex 17.500001192092896 -4.000000149075853 14.149999856932325
    vertex 16.700000047683716 -3.1999999582767895 0.14999985693598247
    vertex 16.700000047683716 -3.1999999583409804 14.149999856936002
  endloop
endfacet
facet normal 0.7071063597182901 0.7071072026545538 3.242628715579412e-12
  outer loop
    vertex 16.700000047683716 -3.1999999582767895 0.14999985693598247
    vertex 17.500001192092896 -4.000000149075853 14.149999856932325
    vertex 17.500001192092896 -4.0000001490116475 0.14999985693229395
  endloop
endfacet
facet normal 1.0 0.0 0.0
  outer loop
    vertex 16.700000047683716 -0.4000000059604641 0.14999985694884152
    vertex 16.700000047683716 -3.1999999583409804 14.149999856936002
    vertex 16.700000047683716 -3.1999999582767895 0.14999985693598247
  endloop
endfacet
facet normal 1.0 0.0 0.0
  outer loop
    vertex 16.700000047683716 -3.1999999583409804 14.149999856936002
    vertex 16.700000047683716 -0.4000000059604641 0.14999985694884152
    vertex 16.700000047683716 -0.4000000060247008 14.149999856948849
  endloop
endfacet
facet normal 1.2026015953344196e-29 -1.0 -4.587781967252415e-12
  outer loop
    vertex 19.000001192092892 -0.4000000059604641 0.14999985694884152
    vertex 16.700000047683716 -0.4000000060247008 14.149999856948849
    vertex 16.700000047683716 -0.4000000059604641 0.14999985694884152
  endloop
endfacet
facet normal 1.2026015953344196e-29 -1.0 -4.587781967252415e-12
  outer loop
    vertex 16.700000047683716 -0.4000000060247008 14.149999856948849
    vertex 19.000001192092892 -0.4000000059604641 0.14999985694884152
    vertex 19.000001192092892 -0.4000000060247008 14.149999856948849
  endloop
endfacet
facet normal 1.0 0.0 0.0
  outer loop
    vertex 19.000001192092892 -0.4000000060247008 14.149999856948849
    vertex 19.000001192092892 -0.4000000059604641 0.14999985694884152
    vertex 19.000001192092892 0.5999999940395352 0.1499998569534437
  endloop
endfacet
facet normal 1.0 0.0 0.0
  outer loop
    vertex 19.000001192092892 -0.4000000060247008 14.149999856948849
    vertex 19.000001192092892 0.5999999940395352 0.1499998569534437
    vertex 19.000001192092892 0.5999999939752977 14.14999985695344
  endloop
endfacet
facet normal 0.0 -1.0 -4.587781967255724e-12
  outer loop
    vertex 20.200000047683716 0.5999999940395352 0.1499998569534437
    vertex 19.000001192092892 0.5999999939752977 14.14999985695344
    vertex 19.000001192092892 0.5999999940395352 0.1499998569534437
  endloop
endfacet
facet normal 0.0 -1.0 -4.587781967255724e-12
  outer loop
    vertex 19.000001192092892 0.5999999939752977 14.14999985695344
    vertex 20.200000047683716 0.5999999940395352 0.1499998569534437
    vertex 20.200000047683716 0.5999999939752977 14.14999985695344
  endloop
endfacet
facet normal -1.0 -0.0 0.0
  outer loop
    vertex 20.200000047683716 -0.4000000060247008 14.149999856948849
    vertex 20.200000047683716 0.5999999940395352 0.1499998569534437
    vertex 20.200000047683716 -0.4000000059604641 0.14999985694884152
  endloop
endfacet
facet normal -1.0 -0.0 0.0
  outer loop
    vertex 20.200000047683716 0.5999999940395352 0.1499998569534437
    vertex 20.200000047683716 -0.4000000060247008 14.149999856948849
    vertex 20.200000047683716 0.5999999939752977 14.14999985695344
  endloop
endfacet
facet normal 2.6496313236143296e-30 -1.0 -4.587781967252415e-12
  outer loop
    vertex 25.100001573562622 -0.4000000059604641 0.14999985694884152
    vertex 20.200000047683716 -0.4000000060247008 14.149999856948849
    vertex 20.200000047683716 -0.4000000059604641 0.14999985694884152
  endloop
endfacet
facet normal 2.6496313236143296e-30 -1.0 -4.587781967252415e-12
  outer loop
    vertex 20.200000047683716 -0.4000000060247008 14.149999856948849
    vertex 25.100001573562622 -0.4000000059604641 0.14999985694884152
    vertex 25.100001573562622 -0.4000000060247008 14.149999856948849
  endloop
endfacet
facet normal -1.0 -0.0 0.0
  outer loop
    vertex 25.100001573562622 -3.1999999583409804 14.149999856936002
    vertex 25.100001573562622 -0.4000000059604641 0.14999985694884152
    vertex 25.100001573562622 -3.1999999582767895 0.14999985693598247
  endloop
endfacet
facet normal -1.0 -0.0 0.0
  outer loop
    vertex 25.100001573562622 -0.4000000059604641 0.14999985694884152
    vertex 25.100001573562622 -3.1999999583409804 14.149999856936002
    vertex 25.100001573562622 -0.4000000060247008 14.149999856948849
  endloop
endfacet
facet normal -0.7071072026550588 0.7071063597177852 3.2426261355748285e-12
  outer loop
    vertex 24.300002336502075 -4.000000149075853 14.149999856932325
    vertex 25.100001573562622 -3.1999999582767895 0.14999985693598247
    vertex 24.300002336502075 -4.0000001490116475 0.14999985693229395
  endloop
endfacet
facet normal -0.7071072026550588 0.7071063597177852 3.2426261355748285e-12
  outer loop
    vertex 25.100001573562622 -3.1999999582767895 0.14999985693598247
    vertex 24.300002336502075 -4.000000149075853 14.149999856932325
    vertex 25.100001573562622 -3.1999999583409804 14.149999856936002
  endloop
endfacet
facet normal -1.0 -0.0 0.0
  outer loop
    vertex 24.300002336502075 -4.600000053644215 0.14999985692958678
    vertex 24.300002336502075 -4.000000149075853 14.149999856932325
    vertex 24.300002336502075 -4.0000001490116475 0.14999985693229395
  endloop
endfacet
facet normal -1.0 -0.0 0.0
  outer loop
    vertex 24.300002336502075 -4.000000149075853 14.149999856932325
    vertex 24.300002336502075 -4.600000053644215 0.14999985692958678
    vertex 24.300002336502075 -4.6000000537084205 14.149999856929584
  endloop
endfacet
facet normal 0.0 -1.0 -4.586071205332183e-12
  outer loop
    vertex 26.400000810623162 -4.600000053644215 0.14999985692958678
    vertex 24.300002336502075 -4.6000000537084205 14.149999856929584
    vertex 24.300002336502075 -4.600000053644215 0.14999985692958678
  endloop
endfacet
facet normal 0.0 -1.0 -4.586071205332183e-12
  outer loop
    vertex 24.300002336502075 -4.6000000537084205 14.149999856929584
    vertex 26.400000810623162 -4.600000053644215 0.14999985692958678
    vertex 26.400000810623162 -4.6000000537084205 14.149999856929584
  endloop
endfacet
facet normal -1.334158337633023e-24 -1.0 -4.587781967252415e-12
  outer loop
    vertex 15.400000810623169 -0.4000000059604641 0.14999985694884152
    vertex 10.400000810623169 -0.4000000060247008 14.149999856948849
    vertex 10.400000810623169 -0.4000000059604641 0.14999985694884152
  endloop
endfacet
facet normal -1.334158337633023e-24 -1.0 -4.587781967252415e-12
  outer loop
    vertex 10.400000810623169 -0.4000000060247008 14.149999856948849
    vertex 15.400000810623169 -0.4000000059604641 0.14999985694884152
    vertex 15.400000810623169 -0.4000000060247008 14.149999856948849
  endloop
endfacet
facet normal 1.0 0.0 0.0
  outer loop
    vertex 10.400000810623169 -0.4000000060247008 14.149999856948849
    vertex 10.400000810623169 -4.600000053644215 0.14999985692958678
    vertex 10.400000810623169 -0.4000000059604641 0.14999985694884152
  endloop
endfacet
facet normal 1.0 0.0 0.0
  outer loop
    vertex 10.400000810623169 -4.600000053644215 0.14999985692958678
    vertex 10.400000810623169 -0.4000000060247008 14.149999856948849
    vertex 10.400000810623169 -4.6000000537084205 14.149999856929584
  endloop
endfacet
facet normal 5.818519097748911e-18 4.5895150964436145e-12 -1.0
  outer loop
    vertex 32.70000004768371 -3.1999999582767895 0.14999985693598247
    vertex 31.400000810623165 -0.4000000059604641 0.14999985694884152
    vertex 32.70000004768371 -0.4000000059604641 0.14999985694884152
  endloop
endfacet
facet normal 5.818519097748911e-18 4.5895150964436145e-12 -1.0
  outer loop
    vertex 31.400000810623165 -0.4000000059604641 0.14999985694884152
    vertex 32.70000004768371 -3.1999999582767895 0.14999985693598247
    vertex 31.400000810623165 -4.600000053644215 0.14999985692958678
  endloop
endfacet
facet normal 5.818519097748911e-18 4.5895150964436145e-12 -1.0
  outer loop
    vertex 31.400000810623165 -4.600000053644215 0.14999985692958678
    vertex 32.70000004768371 -3.1999999582767895 0.14999985693598247
    vertex 33.50000119209289 -4.0000001490116475 0.14999985693229395
  endloop
endfacet
facet normal 5.818519097748911e-18 4.5895150964436145e-12 -1.0
  outer loop
    vertex 31.400000810623165 -4.600000053644215 0.14999985692958678
    vertex 33.50000119209289 -4.0000001490116475 0.14999985693229395
    vertex 33.50000119209289 -4.600000053644215 0.14999985692958678
  endloop
endfacet
facet normal 5.818519097748911e-18 4.5895150964436145e-12 -1.0
  outer loop
    vertex 26.400000810623162 -4.600000053644215 0.14999985692958678
    vertex 25.100001573562622 -0.4000000059604641 0.14999985694884152
    vertex 26.400000810623162 -0.4000000059604641 0.14999985694884152
  endloop
endfacet
facet normal 5.818519097748911e-18 4.5895150964436145e-12 -1.0
  outer loop
    vertex 25.100001573562622 -0.4000000059604641 0.14999985694884152
    vertex 26.400000810623162 -4.600000053644215 0.14999985692958678
    vertex 25.100001573562622 -3.1999999582767895 0.14999985693598247
  endloop
endfacet
facet normal 5.818519097748911e-18 4.5895150964436145e-12 -1.0
  outer loop
    vertex 25.100001573562622 -3.1999999582767895 0.14999985693598247
    vertex 26.400000810623162 -4.600000053644215 0.14999985692958678
    vertex 24.300002336502075 -4.0000001490116475 0.14999985693229395
  endloop
endfacet
facet normal 5.818519097748911e-18 4.5895150964436145e-12 -1.0
  outer loop
    vertex 24.300002336502075 -4.0000001490116475 0.14999985693229395
    vertex 26.400000810623162 -4.600000053644215 0.14999985692958678
    vertex 24.300002336502075 -4.600000053644215 0.14999985692958678
  endloop
endfacet
facet normal 5.818519097748911e-18 4.5895150964436145e-12 -1.0
  outer loop
    vertex 35.00000119209288 -0.4000000059604641 0.14999985694884152
    vertex 20.200000047683716 0.5999999940395352 0.1499998569534437
    vertex 35.00000119209288 0.5999999940395355 0.1499998569534437
  endloop
endfacet
facet normal 5.818519097748911e-18 4.5895150964436145e-12 -1.0
  outer loop
    vertex 20.200000047683716 0.5999999940395352 0.1499998569534437
    vertex 35.00000119209288 -0.4000000059604641 0.14999985694884152
    vertex 20.200000047683716 -0.4000000059604641 0.14999985694884152
  endloop
endfacet
facet normal 5.818519097748911e-18 4.5895150964436145e-12 -1.0
  outer loop
    vertex 20.200000047683716 -0.4000000059604641 0.14999985694884152
    vertex 35.00000119209288 -0.4000000059604641 0.14999985694884152
    vertex 32.70000004768371 -0.4000000059604641 0.14999985694884152
  endloop
endfacet
facet normal 5.818519097748911e-18 4.5895150964436145e-12 -1.0
  outer loop
    vertex 20.200000047683716 -0.4000000059604641 0.14999985694884152
    vertex 32.70000004768371 -0.4000000059604641 0.14999985694884152
    vertex 31.400000810623165 -0.4000000059604641 0.14999985694884152
  endloop
endfacet
facet normal 5.818519097748911e-18 4.5895150964436145e-12 -1.0
  outer loop
    vertex 20.200000047683716 -0.4000000059604641 0.14999985694884152
    vertex 31.400000810623165 -0.4000000059604641 0.14999985694884152
    vertex 26.400000810623162 -0.4000000059604641 0.14999985694884152
  endloop
endfacet
facet normal 5.818519097748911e-18 4.5895150964436145e-12 -1.0
  outer loop
    vertex 20.200000047683716 -0.4000000059604641 0.14999985694884152
    vertex 26.400000810623162 -0.4000000059604641 0.14999985694884152
    vertex 25.100001573562622 -0.4000000059604641 0.14999985694884152
  endloop
endfacet
facet normal 5.818519097748911e-18 4.5895150964436145e-12 -1.0
  outer loop
    vertex 16.700000047683716 -3.1999999582767895 0.14999985693598247
    vertex 15.400000810623169 -0.4000000059604641 0.14999985694884152
    vertex 16.700000047683716 -0.4000000059604641 0.14999985694884152
  endloop
endfacet
facet normal 5.818519097748911e-18 4.5895150964436145e-12 -1.0
  outer loop
    vertex 15.400000810623169 -0.4000000059604641 0.14999985694884152
    vertex 16.700000047683716 -3.1999999582767895 0.14999985693598247
    vertex 15.400000810623169 -4.600000053644215 0.14999985692958678
  endloop
endfacet
facet normal 5.818519097748911e-18 4.5895150964436145e-12 -1.0
  outer loop
    vertex 15.400000810623169 -4.600000053644215 0.14999985692958678
    vertex 16.700000047683716 -3.1999999582767895 0.14999985693598247
    vertex 17.500001192092896 -4.0000001490116475 0.14999985693229395
  endloop
endfacet
facet normal 5.818519097748911e-18 4.5895150964436145e-12 -1.0
  outer loop
    vertex 15.400000810623169 -4.600000053644215 0.14999985692958678
    vertex 17.500001192092896 -4.0000001490116475 0.14999985693229395
    vertex 17.500001192092896 -4.600000053644215 0.14999985692958678
  endloop
endfacet
facet normal 5.818519097748911e-18 4.5895150964436145e-12 -1.0
  outer loop
    vertex 10.400000810623169 -4.600000053644215 0.14999985692958678
    vertex 9.100001573562622 -0.4000000059604641 0.14999985694884152
    vertex 10.400000810623169 -0.4000000059604641 0.14999985694884152
  endloop
endfacet
facet normal 5.818519097748911e-18 4.5895150964436145e-12 -1.0
  outer loop
    vertex 9.100001573562622 -0.4000000059604641 0.14999985694884152
    vertex 10.400000810623169 -4.600000053644215 0.14999985692958678
    vertex 9.100001573562622 -3.1999999582767895 0.14999985693598247
  endloop
endfacet
facet normal 5.818519097748911e-18 4.5895150964436145e-12 -1.0
  outer loop
    vertex 9.100001573562622 -3.1999999582767895 0.14999985693598247
    vertex 10.400000810623169 -4.600000053644215 0.14999985692958678
    vertex 8.300000429153442 -4.0000001490116475 0.14999985693229395
  endloop
endfacet
facet normal 5.818519097748911e-18 4.5895150964436145e-12 -1.0
  outer loop
    vertex 8.300000429153442 -4.0000001490116475 0.14999985693229395
    vertex 10.400000810623169 -4.600000053644215 0.14999985692958678
    vertex 8.300000429153442 -4.600000053644215 0.14999985692958678
  endloop
endfacet
facet normal 5.818519097748911e-18 4.5895150964436145e-12 -1.0
  outer loop
    vertex 19.000001192092892 -0.4000000059604641 0.14999985694884152
    vertex 4.200001001358032 0.5999999940395352 0.1499998569534437
    vertex 19.000001192092892 0.5999999940395352 0.1499998569534437
  endloop
endfacet
facet normal 5.818519097748911e-18 4.5895150964436145e-12 -1.0
  outer loop
    vertex 4.200001001358032 0.5999999940395352 0.1499998569534437
    vertex 19.000001192092892 -0.4000000059604641 0.14999985694884152
    vertex 4.200001001358032 -0.4000000059604641 0.14999985694884152
  endloop
endfacet
facet normal 5.818519097748911e-18 4.5895150964436145e-12 -1.0
  outer loop
    vertex 4.200001001358032 -0.4000000059604641 0.14999985694884152
    vertex 19.000001192092892 -0.4000000059604641 0.14999985694884152
    vertex 16.700000047683716 -0.4000000059604641 0.14999985694884152
  endloop
endfacet
facet normal 5.818519097748911e-18 4.5895150964436145e-12 -1.0
  outer loop
    vertex 4.200001001358032 -0.4000000059604641 0.14999985694884152
    vertex 16.700000047683716 -0.4000000059604641 0.14999985694884152
    vertex 15.400000810623169 -0.4000000059604641 0.14999985694884152
  endloop
endfacet
facet normal 5.818519097748911e-18 4.5895150964436145e-12 -1.0
  outer loop
    vertex 4.200001001358032 -0.4000000059604641 0.14999985694884152
    vertex 15.400000810623169 -0.4000000059604641 0.14999985694884152
    vertex 10.400000810623169 -0.4000000059604641 0.14999985694884152
  endloop
endfacet
facet normal 5.818519097748911e-18 4.5895150964436145e-12 -1.0
  outer loop
    vertex 4.200001001358032 -0.4000000059604641 0.14999985694884152
    vertex 10.400000810623169 -0.4000000059604641 0.14999985694884152
    vertex 9.100001573562622 -0.4000000059604641 0.14999985694884152
  endloop
endfacet
facet normal 5.818519097748911e-18 4.5895150964436145e-12 -1.0
  outer loop
    vertex -0.5999991893768316 1.3999998558961533 0.14999985695712093
    vertex 0.7000010013580329 -0.4000000059604641 0.14999985694884152
    vertex -0.5999991893768302 -4.600000053644215 0.14999985692958678
  endloop
endfacet
facet normal 5.818519097748911e-18 4.5895150964436145e-12 -1.0
  outer loop
    vertex 0.7000010013580329 -0.4000000059604641 0.14999985694884152
    vertex -0.5999991893768316 1.3999998558961533 0.14999985695712093
    vertex 3.000001192092897 0.5999999940395352 0.1499998569534437
  endloop
endfacet
facet normal 5.818519097748911e-18 4.5895150964436145e-12 -1.0
  outer loop
    vertex 3.000001192092897 0.5999999940395352 0.1499998569534437
    vertex -0.5999991893768316 1.3999998558961533 0.14999985695712093
    vertex 42.400000810623155 1.3999998558961309 0.14999985695712093
  endloop
endfacet
facet normal 5.818519097748911e-18 4.5895150964436145e-12 -1.0
  outer loop
    vertex 3.000001192092897 0.5999999940395352 0.1499998569534437
    vertex 42.400000810623155 1.3999998558961309 0.14999985695712093
    vertex 35.00000119209288 0.5999999940395355 0.1499998569534437
  endloop
endfacet
facet normal 5.818519097748911e-18 4.5895150964436145e-12 -1.0
  outer loop
    vertex 35.00000119209288 0.5999999940395355 0.1499998569534437
    vertex 42.400000810623155 1.3999998558961309 0.14999985695712093
    vertex 36.20000004768371 0.5999999940395355 0.1499998569534437
  endloop
endfacet
facet normal 5.818519097748911e-18 4.5895150964436145e-12 -1.0
  outer loop
    vertex 3.000001192092897 0.5999999940395352 0.1499998569534437
    vertex 35.00000119209288 0.5999999940395355 0.1499998569534437
    vertex 20.200000047683716 0.5999999940395352 0.1499998569534437
  endloop
endfacet
facet normal 5.818519097748911e-18 4.5895150964436145e-12 -1.0
  outer loop
    vertex 3.000001192092897 0.5999999940395352 0.1499998569534437
    vertex 20.200000047683716 0.5999999940395352 0.1499998569534437
    vertex 19.000001192092892 0.5999999940395352 0.1499998569534437
  endloop
endfacet
facet normal 5.818519097748911e-18 4.5895150964436145e-12 -1.0
  outer loop
    vertex 3.000001192092897 0.5999999940395352 0.1499998569534437
    vertex 19.000001192092892 0.5999999940395352 0.1499998569534437
    vertex 4.200001001358032 0.5999999940395352 0.1499998569534437
  endloop
endfacet
facet normal 5.818519097748911e-18 4.5895150964436145e-12 -1.0
  outer loop
    vertex 0.7000010013580329 -0.4000000059604641 0.14999985694884152
    vertex 3.000001192092897 0.5999999940395352 0.1499998569534437
    vertex 3.000001192092897 -0.4000000059604641 0.14999985694884152
  endloop
endfacet
facet normal 5.818519097748911e-18 4.5895150964436145e-12 -1.0
  outer loop
    vertex -0.5999991893768302 -4.600000053644215 0.14999985692958678
    vertex 0.7000010013580329 -0.4000000059604641 0.14999985694884152
    vertex 0.7000010013580329 -3.1999999582767895 0.14999985693598247
  endloop
endfacet
facet normal 5.818519097748911e-18 4.5895150964436145e-12 -1.0
  outer loop
    vertex -0.5999991893768302 -4.600000053644215 0.14999985692958678
    vertex 0.7000010013580329 -3.1999999582767895 0.14999985693598247
    vertex 1.5000011920928968 -4.0000001490116475 0.14999985693229395
  endloop
endfacet
facet normal 5.818519097748911e-18 4.5895150964436145e-12 -1.0
  outer loop
    vertex -0.5999991893768302 -4.600000053644215 0.14999985692958678
    vertex 1.5000011920928968 -4.0000001490116475 0.14999985693229395
    vertex 1.5000011920928968 -4.600000053644215 0.14999985692958678
  endloop
endfacet
facet normal 5.818519097748911e-18 4.5895150964436145e-12 -1.0
  outer loop
    vertex 42.400000810623155 1.3999998558961309 0.14999985695712093
    vertex 41.10000157356262 -0.4000000059604641 0.14999985694884152
    vertex 36.20000004768371 0.5999999940395355 0.1499998569534437
  endloop
endfacet
facet normal 5.818519097748911e-18 4.5895150964436145e-12 -1.0
  outer loop
    vertex 41.10000157356262 -0.4000000059604641 0.14999985694884152
    vertex 42.400000810623155 1.3999998558961309 0.14999985695712093
    vertex 42.400000810623155 -4.600000053644215 0.14999985692958678
  endloop
endfacet
facet normal 5.818519097748911e-18 4.5895150964436145e-12 -1.0
  outer loop
    vertex 41.10000157356262 -0.4000000059604641 0.14999985694884152
    vertex 42.400000810623155 -4.600000053644215 0.14999985692958678
    vertex 41.10000157356262 -3.1999999582767895 0.14999985693598247
  endloop
endfacet
facet normal 5.818519097748911e-18 4.5895150964436145e-12 -1.0
  outer loop
    vertex 41.10000157356262 -3.1999999582767895 0.14999985693598247
    vertex 42.400000810623155 -4.600000053644215 0.14999985692958678
    vertex 40.30000233650207 -4.0000001490116475 0.14999985693229395
  endloop
endfacet
facet normal 5.818519097748911e-18 4.5895150964436145e-12 -1.0
  outer loop
    vertex 40.30000233650207 -4.0000001490116475 0.14999985693229395
    vertex 42.400000810623155 -4.600000053644215 0.14999985692958678
    vertex 40.30000233650207 -4.600000053644215 0.14999985692958678
  endloop
endfacet
facet normal 5.818519097748911e-18 4.5895150964436145e-12 -1.0
  outer loop
    vertex 36.20000004768371 -0.4000000059604641 0.14999985694884152
    vertex 36.20000004768371 0.5999999940395355 0.1499998569534437
    vertex 41.10000157356262 -0.4000000059604641 0.14999985694884152
  endloop
endfacet
facet normal 4.1241636664196124e-16 1.0 4.587833684383771e-12
  outer loop
    vertex 42.400000810623155 1.3999998558319051 14.149999856957129
    vertex -0.5999991893768316 1.3999998558961533 0.14999985695712093
    vertex -0.5999991893768316 1.399999855831916 14.149999856957129
  endloop
endfacet
facet normal 4.1241636664196124e-16 1.0 4.587833684383771e-12
  outer loop
    vertex -0.5999991893768316 1.3999998558961533 0.14999985695712093
    vertex 42.400000810623155 1.3999998558319051 14.149999856957129
    vertex 42.400000810623155 1.3999998558961309 0.14999985695712093
  endloop
endfacet
facet normal 1.0 0.0 0.0
  outer loop
    vertex 26.400000810623162 -0.4000000060247008 14.149999856948849
    vertex 26.400000810623162 -4.600000053644215 0.14999985692958678
    vertex 26.400000810623162 -0.4000000059604641 0.14999985694884152
  endloop
endfacet
facet normal 1.0 0.0 0.0
  outer loop
    vertex 26.400000810623162 -4.600000053644215 0.14999985692958678
    vertex 26.400000810623162 -0.4000000060247008 14.149999856948849
    vertex 26.400000810623162 -4.6000000537084205 14.149999856929584
  endloop
endfacet
facet normal 0.0 -1.0 -4.588362428099247e-12
  outer loop
    vertex 31.400000810623165 -0.4000000059604641 0.14999985694884152
    vertex 26.400000810623162 -0.4000000060247008 14.149999856948849
    vertex 26.400000810623162 -0.4000000059604641 0.14999985694884152
  endloop
endfacet
facet normal 0.0 -1.0 -4.588362428099247e-12
  outer loop
    vertex 26.400000810623162 -0.4000000060247008 14.149999856948849
    vertex 31.400000810623165 -0.4000000059604641 0.14999985694884152
    vertex 31.400000810623165 -0.4000000060247008 14.149999856948849
  endloop
endfacet
facet normal -3.7816514689231155e-24 -1.0 -4.587781967252415e-12
  outer loop
    vertex 42.400000810623155 -4.600000053644215 0.14999985692958678
    vertex 40.30000233650207 -4.6000000537084205 14.149999856929584
    vertex 40.30000233650207 -4.600000053644215 0.14999985692958678
  endloop
endfacet
facet normal -3.7816514689231155e-24 -1.0 -4.587781967252415e-12
  outer loop
    vertex 40.30000233650207 -4.6000000537084205 14.149999856929584
    vertex 42.400000810623155 -4.600000053644215 0.14999985692958678
    vertex 42.400000810623155 -4.6000000537084205 14.149999856929584
  endloop
endfacet
facet normal -1.0 -0.0 0.0
  outer loop
    vertex 40.30000233650207 -4.600000053644215 0.14999985692958678
    vertex 40.30000233650207 -4.000000149075853 14.149999856932325
    vertex 40.30000233650207 -4.0000001490116475 0.14999985693229395
  endloop
endfacet
facet normal -1.0 -0.0 0.0
  outer loop
    vertex 40.30000233650207 -4.000000149075853 14.149999856932325
    vertex 40.30000233650207 -4.600000053644215 0.14999985692958678
    vertex 40.30000233650207 -4.6000000537084205 14.149999856929584
  endloop
endfacet
facet normal -1.0 -0.0 0.0
  outer loop
    vertex 36.20000004768371 -0.4000000060247008 14.149999856948849
    vertex 36.20000004768371 0.5999999940395355 0.1499998569534437
    vertex 36.20000004768371 -0.4000000059604641 0.14999985694884152
  endloop
endfacet
facet normal -1.0 -0.0 0.0
  outer loop
    vertex 36.20000004768371 0.5999999940395355 0.1499998569534437
    vertex 36.20000004768371 -0.4000000060247008 14.149999856948849
    vertex 36.20000004768371 0.5999999939752977 14.14999985695344
  endloop
endfacet
facet normal 1.0 0.0 0.0
  outer loop
    vertex 33.50000119209289 -4.000000149075853 14.149999856932325
    vertex 33.50000119209289 -4.600000053644215 0.14999985692958678
    vertex 33.50000119209289 -4.0000001490116475 0.14999985693229395
  endloop
endfacet
facet normal 1.0 0.0 0.0
  outer loop
    vertex 33.50000119209289 -4.600000053644215 0.14999985692958678
    vertex 33.50000119209289 -4.000000149075853 14.149999856932325
    vertex 33.50000119209289 -4.6000000537084205 14.149999856929584
  endloop
endfacet
facet normal 1.4425774283211426e-29 -1.0 -4.587781967252415e-12
  outer loop
    vertex 33.50000119209289 -4.600000053644215 0.14999985692958678
    vertex 31.400000810623165 -4.6000000537084205 14.149999856929584
    vertex 31.400000810623165 -4.600000053644215 0.14999985692958678
  endloop
endfacet
facet normal 1.4425774283211426e-29 -1.0 -4.587781967252415e-12
  outer loop
    vertex 31.400000810623165 -4.6000000537084205 14.149999856929584
    vertex 33.50000119209289 -4.600000053644215 0.14999985692958678
    vertex 33.50000119209289 -4.6000000537084205 14.149999856929584
  endloop
endfacet
facet normal 1.0 0.0 0.0
  outer loop
    vertex 32.70000004768371 -0.4000000059604641 0.14999985694884152
    vertex 32.70000004768371 -3.1999999583409804 14.149999856936002
    vertex 32.70000004768371 -3.1999999582767895 0.14999985693598247
  endloop
endfacet
facet normal 1.0 0.0 0.0
  outer loop
    vertex 32.70000004768371 -3.1999999583409804 14.149999856936002
    vertex 32.70000004768371 -0.4000000059604641 0.14999985694884152
    vertex 32.70000004768371 -0.4000000060247008 14.149999856948849
  endloop
endfacet
facet normal 0.7071063597182901 0.7071072026545538 3.242628715579412e-12
  outer loop
    vertex 33.50000119209289 -4.000000149075853 14.149999856932325
    vertex 32.70000004768371 -3.1999999582767895 0.14999985693598247
    vertex 32.70000004768371 -3.1999999583409804 14.149999856936002
  endloop
endfacet
facet normal 0.7071063597182901 0.7071072026545538 3.242628715579412e-12
  outer loop
    vertex 32.70000004768371 -3.1999999582767895 0.14999985693598247
    vertex 33.50000119209289 -4.000000149075853 14.149999856932325
    vertex 33.50000119209289 -4.0000001490116475 0.14999985693229395
  endloop
endfacet
facet normal 1.0 0.0 0.0
  outer loop
    vertex 35.00000119209288 -0.4000000060247008 14.149999856948849
    vertex 35.00000119209288 -0.4000000059604641 0.14999985694884152
    vertex 35.00000119209288 0.5999999940395355 0.1499998569534437
  endloop
endfacet
facet normal 0.0 -1.0 -4.587781967255724e-12
  outer loop
    vertex 36.20000004768371 0.5999999940395355 0.1499998569534437
    vertex 35.00000119209288 0.5999999939752977 14.14999985695344
    vertex 35.00000119209288 0.5999999940395355 0.1499998569534437
  endloop
endfacet
facet normal 0.0 -1.0 -4.587781967255724e-12
  outer loop
    vertex 35.00000119209288 0.5999999939752977 14.14999985695344
    vertex 36.20000004768371 0.5999999940395355 0.1499998569534437
    vertex 36.20000004768371 0.5999999939752977 14.14999985695344
  endloop
endfacet
facet normal 2.6496313236143296e-30 -1.0 -4.587781967252415e-12
  outer loop
    vertex 41.10000157356262 -0.4000000059604641 0.14999985694884152
    vertex 36.20000004768371 -0.4000000060247008 14.149999856948849
    vertex 36.20000004768371 -0.4000000059604641 0.14999985694884152
  endloop
endfacet
facet normal 2.6496313236143296e-30 -1.0 -4.587781967252415e-12
  outer loop
    vertex 36.20000004768371 -0.4000000060247008 14.149999856948849
    vertex 41.10000157356262 -0.4000000059604641 0.14999985694884152
    vertex 41.10000157356262 -0.4000000060247008 14.149999856948849
  endloop
endfacet
facet normal 1.2026015953344196e-29 -1.0 -4.587781967252415e-12
  outer loop
    vertex 35.00000119209288 -0.4000000059604641 0.14999985694884152
    vertex 32.70000004768371 -0.4000000060247008 14.149999856948849
    vertex 32.70000004768371 -0.4000000059604641 0.14999985694884152
  endloop
endfacet
facet normal 1.2026015953344196e-29 -1.0 -4.587781967252415e-12
  outer loop
    vertex 32.70000004768371 -0.4000000060247008 14.149999856948849
    vertex 35.00000119209288 -0.4000000059604641 0.14999985694884152
    vertex 35.00000119209288 -0.4000000060247008 14.149999856948849
  endloop
endfacet
facet normal -0.7071072026550588 0.7071063597177852 3.2426261355748285e-12
  outer loop
    vertex 40.30000233650207 -4.000000149075853 14.149999856932325
    vertex 41.10000157356262 -3.1999999582767895 0.14999985693598247
    vertex 40.30000233650207 -4.0000001490116475 0.14999985693229395
  endloop
endfacet
facet normal -0.7071072026550588 0.7071063597177852 3.2426261355748285e-12
  outer loop
    vertex 41.10000157356262 -3.1999999582767895 0.14999985693598247
    vertex 40.30000233650207 -4.000000149075853 14.149999856932325
    vertex 41.10000157356262 -3.1999999583409804 14.149999856936002
  endloop
endfacet
facet normal 1.0 0.0 0.0
  outer loop
    vertex 35.00000119209288 -0.4000000060247008 14.149999856948849
    vertex 35.00000119209288 0.5999999940395355 0.1499998569534437
    vertex 35.00000119209288 0.5999999939752977 14.14999985695344
  endloop
endfacet
facet normal -1.0 -0.0 0.0
  outer loop
    vertex 31.400000810623165 -4.600000053644215 0.14999985692958678
    vertex 31.400000810623165 -0.4000000060247008 14.149999856948849
    vertex 31.400000810623165 -0.4000000059604641 0.14999985694884152
  endloop
endfacet
facet normal -1.0 -0.0 0.0
  outer loop
    vertex 31.400000810623165 -0.4000000060247008 14.149999856948849
    vertex 31.400000810623165 -4.600000053644215 0.14999985692958678
    vertex 31.400000810623165 -4.6000000537084205 14.149999856929584
  endloop
endfacet
facet normal -1.0 -0.0 0.0
  outer loop
    vertex 41.10000157356262 -3.1999999583409804 14.149999856936002
    vertex 41.10000157356262 -0.4000000059604641 0.14999985694884152
    vertex 41.10000157356262 -3.1999999582767895 0.14999985693598247
  endloop
endfacet
facet normal -1.0 -0.0 0.0
  outer loop
    vertex 41.10000157356262 -0.4000000059604641 0.14999985694884152
    vertex 41.10000157356262 -3.1999999583409804 14.149999856936002
    vertex 41.10000157356262 -0.4000000060247008 14.149999856948849
  endloop
endfacet
facet normal 1.0 3.592313971003226e-16 1.3428411821821443e-16
  outer loop
    vertex 42.400000810623155 1.3999998558961309 0.14999985695712093
    vertex 42.400000810623155 -4.6000000537084205 14.149999856929584
    vertex 42.400000810623155 -4.600000053644215 0.14999985692958678
  endloop
endfacet
facet normal 1.0 3.592313971003226e-16 1.3428411821821443e-16
  outer loop
    vertex 42.400000810623155 -4.6000000537084205 14.149999856929584
    vertex 42.400000810623155 1.3999998558961309 0.14999985695712093
    vertex 42.400000810623155 1.3999998558319051 14.149999856957129
  endloop
endfacet
facet normal -3.6446475884119175e-15 0.5105386831066592 0.8598547860259419
  outer loop
    vertex 17.66342081050899 4.899999707873011 10.099999904632577
    vertex 14.663420899915941 6.500000089342736 9.14999985694886
    vertex 14.663420899915913 4.899999707873011 10.099999904632563
  endloop
endfacet
facet normal -3.6446475884119175e-15 0.5105386831066592 0.8598547860259419
  outer loop
    vertex 14.663420899915941 6.500000089342736 9.14999985694886
    vertex 17.66342081050899 4.899999707873011 10.099999904632577
    vertex 17.66342081050899 6.500000089342736 9.149999856948872
  endloop
endfacet
facet normal 0.0 -1.0 0.0
  outer loop
    vertex 17.66342081050899 4.500000089342734 9.149999856948872
    vertex 14.663420899915913 4.500000089342737 10.099999904632567
    vertex 14.663420899915941 4.500000089342734 9.149999856948861
  endloop
endfacet
facet normal 0.0 -1.0 0.0
  outer loop
    vertex 14.663420899915913 4.500000089342737 10.099999904632567
    vertex 17.66342081050899 4.500000089342734 9.149999856948872
    vertex 17.66342081050899 4.500000089342737 10.09999990463258
  endloop
endfacet
facet normal -4.699944277649012e-15 0.0 1.0
  outer loop
    vertex 17.66342081050899 4.500000089342737 10.09999990463258
    vertex 14.663420899915913 4.899999707873011 10.099999904632563
    vertex 14.663420899915913 4.500000089342737 10.099999904632567
  endloop
endfacet
facet normal -4.699944277649012e-15 0.0 1.0
  outer loop
    vertex 14.663420899915913 4.899999707873011 10.099999904632563
    vertex 17.66342081050899 4.500000089342737 10.09999990463258
    vertex 17.66342081050899 4.899999707873011 10.099999904632577
  endloop
endfacet
facet normal 0.0 1.0 0.0
  outer loop
    vertex 14.663420899915941 6.500000089342736 9.14999985694886
    vertex 17.663420810508978 6.500000089342736 8.349999785423282
    vertex 14.66342089991593 6.500000089342736 8.349999785423277
  endloop
endfacet
facet normal 0.0 1.0 0.0
  outer loop
    vertex 17.663420810508978 6.500000089342736 8.349999785423282
    vertex 14.663420899915941 6.500000089342736 9.14999985694886
    vertex 17.66342081050899 6.500000089342736 9.149999856948872
  endloop
endfacet
facet normal 1.0145371643186417e-15 0.5105386831066664 -0.8598547860259377
  outer loop
    vertex 17.663420810509 6.500000089342736 5.9499998092651545
    vertex 14.663420899915941 4.899999707873002 4.99999976158143
    vertex 14.663420899915941 6.500000089342736 5.949999809265147
  endloop
endfacet
facet normal 1.0145371643186417e-15 0.5105386831066664 -0.8598547860259377
  outer loop
    vertex 14.663420899915941 4.899999707873002 4.99999976158143
    vertex 17.663420810509 6.500000089342736 5.9499998092651545
    vertex 17.663420810508978 4.899999707873002 4.99999976158143
  endloop
endfacet
facet normal 2.3499721388245436e-16 0.0 -1.0
  outer loop
    vertex 17.663420810508978 4.899999707873002 4.99999976158143
    vertex 14.663420899915941 4.500000089342728 4.999999761581428
    vertex 14.663420899915941 4.899999707873002 4.99999976158143
  endloop
endfacet
facet normal 2.3499721388245436e-16 0.0 -1.0
  outer loop
    vertex 14.663420899915941 4.500000089342728 4.999999761581428
    vertex 17.663420810508978 4.899999707873002 4.99999976158143
    vertex 17.663420810508978 4.500000089342728 4.999999761581428
  endloop
endfacet
facet normal 0.0 1.0 0.0
  outer loop
    vertex 14.663420899915923 6.500000089342733 6.749999821186066
    vertex 17.663420810509 6.500000089342736 5.9499998092651545
    vertex 14.663420899915941 6.500000089342736 5.949999809265147
  endloop
endfacet
facet normal 0.0 1.0 0.0
  outer loop
    vertex 17.663420810509 6.500000089342736 5.9499998092651545
    vertex 14.663420899915923 6.500000089342733 6.749999821186066
    vertex 17.66342081050899 6.500000089342733 6.749999821186076
  endloop
endfacet
facet normal 0.0 -1.0 0.0
  outer loop
    vertex 17.663420810509 4.500000089342734 5.949999809265157
    vertex 14.663420899915941 4.500000089342728 4.999999761581428
    vertex 17.663420810508978 4.500000089342728 4.999999761581428
  endloop
endfacet
facet normal 0.0 -1.0 0.0
  outer loop
    vertex 14.663420899915941 4.500000089342728 4.999999761581428
    vertex 17.663420810509 4.500000089342734 5.949999809265157
    vertex 14.663420899915941 4.500000089342734 5.94999980926515
  endloop
endfacet
facet normal 1.0 1.9864623598875185e-16 -6.0755651212901484e-15
  outer loop
    vertex 17.663420810508978 1.3999998558548445 8.128260683146072
    vertex 17.66342081050899 4.500000089342734 9.149999856948872
    vertex 17.66342081050899 1.3999998558548388 9.14999985694886
  endloop
endfacet
facet normal 1.0 1.9864623598875185e-16 -6.0755651212901484e-15
  outer loop
    vertex 17.66342081050899 4.500000089342734 9.149999856948872
    vertex 17.663420810508978 1.3999998558548445 8.128260683146072
    vertex 17.663420810508978 6.500000089342736 8.349999785423282
  endloop
endfacet
facet normal 1.0 1.9864623598875185e-16 -6.0755651212901484e-15
  outer loop
    vertex 17.66342081050899 4.500000089342734 9.149999856948872
    vertex 17.663420810508978 6.500000089342736 8.349999785423282
    vertex 17.66342081050899 4.500000089342737 10.09999990463258
  endloop
endfacet
facet normal 1.0 1.9864623598875185e-16 -6.0755651212901484e-15
  outer loop
    vertex 17.66342081050899 4.500000089342737 10.09999990463258
    vertex 17.663420810508978 6.500000089342736 8.349999785423282
    vertex 17.66342081050899 4.899999707873011 10.099999904632577
  endloop
endfacet
facet normal 1.0 1.9864623598875185e-16 -6.0755651212901484e-15
  outer loop
    vertex 17.66342081050899 4.899999707873011 10.099999904632577
    vertex 17.663420810508978 6.500000089342736 8.349999785423282
    vertex 17.66342081050899 6.500000089342736 9.149999856948872
  endloop
endfacet
facet normal 1.9974763180008598e-15 4.3333957515980126e-16 -1.0
  outer loop
    vertex 17.663420810509 4.500000089342734 5.949999809265157
    vertex 14.663420899915941 1.3999998558648343 5.949999809265147
    vertex 14.663420899915941 4.500000089342734 5.94999980926515
  endloop
endfacet
facet normal 1.9974763180008598e-15 4.3333957515980126e-16 -1.0
  outer loop
    vertex 14.663420899915941 1.3999998558648343 5.949999809265147
    vertex 17.663420810509 4.500000089342734 5.949999809265157
    vertex 17.663420810509 1.3999998558648328 5.949999809265153
  endloop
endfacet
facet normal -7.03213280312571e-16 0.043437216785943276 -0.9990561586807275
  outer loop
    vertex 17.663420810508978 6.500000089342736 8.349999785423282
    vertex 14.663420899915952 1.3999998558554607 8.12826068314611
    vertex 14.66342089991593 6.500000089342736 8.349999785423277
  endloop
endfacet
facet normal -7.03213280312571e-16 0.043437216785943276 -0.9990561586807275
  outer loop
    vertex 14.663420899915952 1.3999998558554607 8.12826068314611
    vertex 17.663420810508978 6.500000089342736 8.349999785423282
    vertex 17.663420810508978 1.3999998558548445 8.128260683146072
  endloop
endfacet
facet normal 2.925211056751483e-13 1.0 9.51108465377479e-13
  outer loop
    vertex 13.66342081050899 1.399999855854843 5.149999856948866
    vertex 14.663420899915941 1.3999998558648343 5.949999809265147
    vertex 18.66342081050899 1.399999855854843 5.149999856948866
  endloop
endfacet
facet normal 2.925211056751483e-13 1.0 9.51108465377479e-13
  outer loop
    vertex 14.663420899915941 1.3999998558648343 5.949999809265147
    vertex 13.66342081050899 1.399999855854843 5.149999856948866
    vertex 13.66342081050899 1.399999855854843 9.795141598901113
  endloop
endfacet
facet normal 2.925211056751483e-13 1.0 9.51108465377479e-13
  outer loop
    vertex 14.663420899915941 1.3999998558648343 5.949999809265147
    vertex 13.66342081050899 1.399999855854843 9.795141598901113
    vertex 14.663420899915936 1.3999998558648343 6.971738945490644
  endloop
endfacet
facet normal 2.925211056751483e-13 1.0 9.51108465377479e-13
  outer loop
    vertex 14.663420899915936 1.3999998558648343 6.971738945490644
    vertex 13.66342081050899 1.399999855854843 9.795141598901113
    vertex 14.663420899915952 1.3999998558554607 8.12826068314611
  endloop
endfacet
facet normal 2.925211056751483e-13 1.0 9.51108465377479e-13
  outer loop
    vertex 14.663420899915936 1.3999998558648343 6.971738945490644
    vertex 14.663420899915952 1.3999998558554607 8.12826068314611
    vertex 17.663420810508995 1.3999998558648328 6.971738945490656
  endloop
endfacet
facet normal 2.925211056751483e-13 1.0 9.51108465377479e-13
  outer loop
    vertex 17.663420810508995 1.3999998558648328 6.971738945490656
    vertex 14.663420899915952 1.3999998558554607 8.12826068314611
    vertex 17.663420810508978 1.3999998558548445 8.128260683146072
  endloop
endfacet
facet normal 2.925211056751483e-13 1.0 9.51108465377479e-13
  outer loop
    vertex 14.663420899915952 1.3999998558554607 8.12826068314611
    vertex 13.66342081050899 1.399999855854843 9.795141598901113
    vertex 14.663420899915947 1.3999998558548388 9.14999985694886
  endloop
endfacet
facet normal 2.925211056751483e-13 1.0 9.51108465377479e-13
  outer loop
    vertex 18.66342081050899 1.399999855854843 5.149999856948866
    vertex 17.663420810509 1.3999998558648328 5.949999809265153
    vertex 18.66342081050899 1.399999855854843 9.795141598901113
  endloop
endfacet
facet normal 2.925211056751483e-13 1.0 9.51108465377479e-13
  outer loop
    vertex 17.663420810509 1.3999998558648328 5.949999809265153
    vertex 18.66342081050899 1.399999855854843 5.149999856948866
    vertex 14.663420899915941 1.3999998558648343 5.949999809265147
  endloop
endfacet
facet normal 2.925211056751483e-13 1.0 9.51108465377479e-13
  outer loop
    vertex 18.66342081050899 1.399999855854843 9.795141598901113
    vertex 17.663420810509 1.3999998558648328 5.949999809265153
    vertex 17.663420810508995 1.3999998558648328 6.971738945490656
  endloop
endfacet
facet normal 2.925211056751483e-13 1.0 9.51108465377479e-13
  outer loop
    vertex 18.66342081050899 1.399999855854843 9.795141598901113
    vertex 17.663420810508995 1.3999998558648328 6.971738945490656
    vertex 17.663420810508978 1.3999998558548445 8.128260683146072
  endloop
endfacet
facet normal 2.925211056751483e-13 1.0 9.51108465377479e-13
  outer loop
    vertex 18.66342081050899 1.399999855854843 9.795141598901113
    vertex 17.663420810508978 1.3999998558548445 8.128260683146072
    vertex 17.66342081050899 1.3999998558548388 9.14999985694886
  endloop
endfacet
facet normal 2.925211056751483e-13 1.0 9.51108465377479e-13
  outer loop
    vertex 18.66342081050899 1.399999855854843 9.795141598901113
    vertex 17.66342081050899 1.3999998558548388 9.14999985694886
    vertex 14.663420899915947 1.3999998558548388 9.14999985694886
  endloop
endfacet
facet normal 2.925211056751483e-13 1.0 9.51108465377479e-13
  outer loop
    vertex 18.66342081050899 1.399999855854843 9.795141598901113
    vertex 14.663420899915947 1.3999998558548388 9.14999985694886
    vertex 13.66342081050899 1.399999855854843 9.795141598901113
  endloop
endfacet
facet normal -1.0 -1.2520302611473155e-15 -6.338328496106072e-15
  outer loop
    vertex 14.663420899915923 6.500000089342733 6.749999821186066
    vertex 14.663420899915941 1.3999998558648343 5.949999809265147
    vertex 14.663420899915936 1.3999998558648343 6.971738945490644
  endloop
endfacet
facet normal -1.0 -1.2520302611473155e-15 -6.338328496106072e-15
  outer loop
    vertex 14.663420899915941 1.3999998558648343 5.949999809265147
    vertex 14.663420899915923 6.500000089342733 6.749999821186066
    vertex 14.663420899915941 4.500000089342734 5.94999980926515
  endloop
endfacet
facet normal -1.0 -1.2520302611473155e-15 -6.338328496106072e-15
  outer loop
    vertex 14.663420899915941 4.500000089342734 5.94999980926515
    vertex 14.663420899915923 6.500000089342733 6.749999821186066
    vertex 14.663420899915941 4.899999707873002 4.99999976158143
  endloop
endfacet
facet normal -1.0 -1.2520302611473155e-15 -6.338328496106072e-15
  outer loop
    vertex 14.663420899915941 4.899999707873002 4.99999976158143
    vertex 14.663420899915923 6.500000089342733 6.749999821186066
    vertex 14.663420899915941 6.500000089342736 5.949999809265147
  endloop
endfacet
facet normal -1.0 -1.2520302611473155e-15 -6.338328496106072e-15
  outer loop
    vertex 14.663420899915941 4.899999707873002 4.99999976158143
    vertex 14.663420899915941 4.500000089342728 4.999999761581428
    vertex 14.663420899915941 4.500000089342734 5.94999980926515
  endloop
endfacet
facet normal -1.0 -2.6360804449753047e-15 -1.442816159391752e-14
  outer loop
    vertex 14.663420899915941 4.500000089342734 9.149999856948861
    vertex 14.663420899915952 1.3999998558554607 8.12826068314611
    vertex 14.663420899915947 1.3999998558548388 9.14999985694886
  endloop
endfacet
facet normal -1.0 -2.6360804449753047e-15 -1.442816159391752e-14
  outer loop
    vertex 14.663420899915952 1.3999998558554607 8.12826068314611
    vertex 14.663420899915941 4.500000089342734 9.149999856948861
    vertex 14.66342089991593 6.500000089342736 8.349999785423277
  endloop
endfacet
facet normal -1.0 -2.6360804449753047e-15 -1.442816159391752e-14
  outer loop
    vertex 14.66342089991593 6.500000089342736 8.349999785423277
    vertex 14.663420899915941 4.500000089342734 9.149999856948861
    vertex 14.663420899915913 4.500000089342737 10.099999904632567
  endloop
endfacet
facet normal -1.0 -2.6360804449753047e-15 -1.442816159391752e-14
  outer loop
    vertex 14.66342089991593 6.500000089342736 8.349999785423277
    vertex 14.663420899915913 4.500000089342737 10.099999904632567
    vertex 14.663420899915913 4.899999707873011 10.099999904632563
  endloop
endfacet
facet normal -1.0 -2.6360804449753047e-15 -1.442816159391752e-14
  outer loop
    vertex 14.66342089991593 6.500000089342736 8.349999785423277
    vertex 14.663420899915913 4.899999707873011 10.099999904632563
    vertex 14.663420899915941 6.500000089342736 9.14999985694886
  endloop
endfacet
facet normal -1.644980497177175e-15 -2.593797604474371e-15 1.0
  outer loop
    vertex 14.663420899915947 1.3999998558548388 9.14999985694886
    vertex 17.66342081050899 4.500000089342734 9.149999856948872
    vertex 14.663420899915941 4.500000089342734 9.149999856948861
  endloop
endfacet
facet normal -1.644980497177175e-15 -2.593797604474371e-15 1.0
  outer loop
    vertex 17.66342081050899 4.500000089342734 9.149999856948872
    vertex 14.663420899915947 1.3999998558548388 9.14999985694886
    vertex 17.66342081050899 1.3999998558548388 9.14999985694886
  endloop
endfacet
facet normal -2.925211056751483e-13 -1.0 -9.51108465377479e-13
  outer loop
    vertex 18.663420810508693 0.39999985585484354 9.79514159890016
    vertex 13.663420810508697 0.39999985585484354 5.1499998569479155
    vertex 18.663420810508693 0.39999985585484354 5.1499998569479155
  endloop
endfacet
facet normal -2.925211056751483e-13 -1.0 -9.51108465377479e-13
  outer loop
    vertex 13.663420810508697 0.39999985585484354 5.1499998569479155
    vertex 18.663420810508693 0.39999985585484354 9.79514159890016
    vertex 13.663420810508697 0.39999985585484354 9.79514159890016
  endloop
endfacet
facet normal 0.0 9.51108465377479e-13 -1.0
  outer loop
    vertex 13.66342081050899 1.399999855854843 5.149999856948866
    vertex 18.663420810508693 0.39999985585484354 5.1499998569479155
    vertex 13.663420810508697 0.39999985585484354 5.1499998569479155
  endloop
endfacet
facet normal 0.0 9.51108465377479e-13 -1.0
  outer loop
    vertex 18.663420810508693 0.39999985585484354 5.1499998569479155
    vertex 13.66342081050899 1.399999855854843 5.149999856948866
    vertex 18.66342081050899 1.399999855854843 5.149999856948866
  endloop
endfacet
facet normal 1.0 -2.925211056751483e-13 -4.9840611996178255e-30
  outer loop
    vertex 18.66342081050899 1.399999855854843 5.149999856948866
    vertex 18.663420810508693 0.39999985585484354 9.79514159890016
    vertex 18.663420810508693 0.39999985585484354 5.1499998569479155
  endloop
endfacet
facet normal 1.0 -2.925211056751483e-13 -4.9840611996178255e-30
  outer loop
    vertex 18.663420810508693 0.39999985585484354 9.79514159890016
    vertex 18.66342081050899 1.399999855854843 5.149999856948866
    vertex 18.66342081050899 1.399999855854843 9.795141598901113
  endloop
endfacet
facet normal 0.0 -9.51108465377479e-13 1.0
  outer loop
    vertex 18.663420810508693 0.39999985585484354 9.79514159890016
    vertex 13.66342081050899 1.399999855854843 9.795141598901113
    vertex 13.663420810508697 0.39999985585484354 9.79514159890016
  endloop
endfacet
facet normal 0.0 -9.51108465377479e-13 1.0
  outer loop
    vertex 13.66342081050899 1.399999855854843 9.795141598901113
    vertex 18.663420810508693 0.39999985585484354 9.79514159890016
    vertex 18.66342081050899 1.399999855854843 9.795141598901113
  endloop
endfacet
facet normal -1.0 2.925211056751483e-13 4.9840611996178255e-30
  outer loop
    vertex 13.66342081050899 1.399999855854843 9.795141598901113
    vertex 13.663420810508697 0.39999985585484354 5.1499998569479155
    vertex 13.663420810508697 0.39999985585484354 9.79514159890016
  endloop
endfacet
facet normal -1.0 2.925211056751483e-13 4.9840611996178255e-30
  outer loop
    vertex 13.663420810508697 0.39999985585484354 5.1499998569479155
    vertex 13.66342081050899 1.399999855854843 9.795141598901113
    vertex 13.66342081050899 1.399999855854843 5.149999856948866
  endloop
endfacet
facet normal 1.0 5.659875528268798e-16 -7.531333105612616e-15
  outer loop
    vertex 17.663420810508978 4.899999707873002 4.99999976158143
    vertex 17.663420810509 4.500000089342734 5.949999809265157
    vertex 17.663420810508978 4.500000089342728 4.999999761581428
  endloop
endfacet
facet normal 1.0 5.659875528268798e-16 -7.531333105612616e-15
  outer loop
    vertex 17.663420810509 4.500000089342734 5.949999809265157
    vertex 17.663420810508995 1.3999998558648328 6.971738945490656
    vertex 17.663420810509 1.3999998558648328 5.949999809265153
  endloop
endfacet
facet normal 1.0 5.659875528268798e-16 -7.531333105612616e-15
  outer loop
    vertex 17.663420810508995 1.3999998558648328 6.971738945490656
    vertex 17.663420810509 4.500000089342734 5.949999809265157
    vertex 17.66342081050899 6.500000089342733 6.749999821186076
  endloop
endfacet
facet normal 1.0 5.659875528268798e-16 -7.531333105612616e-15
  outer loop
    vertex 17.66342081050899 6.500000089342733 6.749999821186076
    vertex 17.663420810509 4.500000089342734 5.949999809265157
    vertex 17.663420810508978 4.899999707873002 4.99999976158143
  endloop
endfacet
facet normal 1.0 5.659875528268798e-16 -7.531333105612616e-15
  outer loop
    vertex 17.66342081050899 6.500000089342733 6.749999821186076
    vertex 17.663420810508978 4.899999707873002 4.99999976158143
    vertex 17.663420810509 6.500000089342736 5.9499998092651545
  endloop
endfacet
facet normal -3.749003560338477e-15 0.0434372210929034 0.9990561584934685
  outer loop
    vertex 14.663420899915936 1.3999998558648343 6.971738945490644
    vertex 17.66342081050899 6.500000089342733 6.749999821186076
    vertex 14.663420899915923 6.500000089342733 6.749999821186066
  endloop
endfacet
facet normal -3.749003560338477e-15 0.0434372210929034 0.9990561584934685
  outer loop
    vertex 17.66342081050899 6.500000089342733 6.749999821186076
    vertex 14.663420899915936 1.3999998558648343 6.971738945490644
    vertex 17.663420810508995 1.3999998558648328 6.971738945490656
  endloop
endfacet
facet normal -3.6446475884119175e-15 0.5105386831066592 0.8598547860259419
  outer loop
    vertex 27.663420810508992 4.899999707873011 10.099999904632577
    vertex 24.663420899915945 6.500000089342736 9.14999985694886
    vertex 24.663420899915916 4.899999707873011 10.099999904632563
  endloop
endfacet
facet normal -3.6446475884119175e-15 0.5105386831066592 0.8598547860259419
  outer loop
    vertex 24.663420899915945 6.500000089342736 9.14999985694886
    vertex 27.663420810508992 4.899999707873011 10.099999904632577
    vertex 27.663420810508992 6.500000089342736 9.149999856948872
  endloop
endfacet
facet normal 0.0 -1.0 0.0
  outer loop
    vertex 27.663420810508992 4.500000089342734 9.149999856948872
    vertex 24.663420899915916 4.500000089342737 10.099999904632567
    vertex 24.663420899915945 4.500000089342734 9.149999856948861
  endloop
endfacet
facet normal 0.0 -1.0 0.0
  outer loop
    vertex 24.663420899915916 4.500000089342737 10.099999904632567
    vertex 27.663420810508992 4.500000089342734 9.149999856948872
    vertex 27.663420810508992 4.500000089342737 10.09999990463258
  endloop
endfacet
facet normal -4.699944277649012e-15 0.0 1.0
  outer loop
    vertex 27.663420810508992 4.500000089342737 10.09999990463258
    vertex 24.663420899915916 4.899999707873011 10.099999904632563
    vertex 24.663420899915916 4.500000089342737 10.099999904632567
  endloop
endfacet
facet normal -4.699944277649012e-15 0.0 1.0
  outer loop
    vertex 24.663420899915916 4.899999707873011 10.099999904632563
    vertex 27.663420810508992 4.500000089342737 10.09999990463258
    vertex 27.663420810508992 4.899999707873011 10.099999904632577
  endloop
endfacet
facet normal 0.0 1.0 0.0
  outer loop
    vertex 24.663420899915945 6.500000089342736 9.14999985694886
    vertex 27.66342081050898 6.500000089342736 8.349999785423282
    vertex 24.663420899915934 6.500000089342736 8.349999785423277
  endloop
endfacet
facet normal 0.0 1.0 0.0
  outer loop
    vertex 27.66342081050898 6.500000089342736 8.349999785423282
    vertex 24.663420899915945 6.500000089342736 9.14999985694886
    vertex 27.663420810508992 6.500000089342736 9.149999856948872
  endloop
endfacet
facet normal 1.0145371643186417e-15 0.5105386831066664 -0.8598547860259377
  outer loop
    vertex 27.663420810509002 6.500000089342736 5.9499998092651545
    vertex 24.663420899915945 4.899999707873002 4.99999976158143
    vertex 24.663420899915945 6.500000089342736 5.949999809265147
  endloop
endfacet
facet normal 1.0145371643186417e-15 0.5105386831066664 -0.8598547860259377
  outer loop
    vertex 24.663420899915945 4.899999707873002 4.99999976158143
    vertex 27.663420810509002 6.500000089342736 5.9499998092651545
    vertex 27.66342081050898 4.899999707873002 4.99999976158143
  endloop
endfacet
facet normal 2.3499721388245436e-16 0.0 -1.0
  outer loop
    vertex 27.66342081050898 4.899999707873002 4.99999976158143
    vertex 24.663420899915945 4.500000089342728 4.999999761581428
    vertex 24.663420899915945 4.899999707873002 4.99999976158143
  endloop
endfacet
facet normal 2.3499721388245436e-16 0.0 -1.0
  outer loop
    vertex 24.663420899915945 4.500000089342728 4.999999761581428
    vertex 27.66342081050898 4.899999707873002 4.99999976158143
    vertex 27.66342081050898 4.500000089342728 4.999999761581428
  endloop
endfacet
facet normal 0.0 1.0 0.0
  outer loop
    vertex 24.663420899915927 6.500000089342733 6.749999821186066
    vertex 27.663420810509002 6.500000089342736 5.9499998092651545
    vertex 24.663420899915945 6.500000089342736 5.949999809265147
  endloop
endfacet
facet normal 0.0 1.0 0.0
  outer loop
    vertex 27.663420810509002 6.500000089342736 5.9499998092651545
    vertex 24.663420899915927 6.500000089342733 6.749999821186066
    vertex 27.663420810508992 6.500000089342733 6.749999821186076
  endloop
endfacet
facet normal 0.0 -1.0 0.0
  outer loop
    vertex 27.663420810509002 4.500000089342734 5.949999809265157
    vertex 24.663420899915945 4.500000089342728 4.999999761581428
    vertex 27.66342081050898 4.500000089342728 4.999999761581428
  endloop
endfacet
facet normal 0.0 -1.0 0.0
  outer loop
    vertex 24.663420899915945 4.500000089342728 4.999999761581428
    vertex 27.663420810509002 4.500000089342734 5.949999809265157
    vertex 24.663420899915945 4.500000089342734 5.94999980926515
  endloop
endfacet
facet normal 1.0 1.9864623598875185e-16 -6.0755651212901484e-15
  outer loop
    vertex 27.66342081050898 1.3999998558548445 8.128260683146072
    vertex 27.663420810508992 4.500000089342734 9.149999856948872
    vertex 27.663420810508992 1.3999998558548388 9.14999985694886
  endloop
endfacet
facet normal 1.0 1.9864623598875185e-16 -6.0755651212901484e-15
  outer loop
    vertex 27.663420810508992 4.500000089342734 9.149999856948872
    vertex 27.66342081050898 1.3999998558548445 8.128260683146072
    vertex 27.66342081050898 6.500000089342736 8.349999785423282
  endloop
endfacet
facet normal 1.0 1.9864623598875185e-16 -6.0755651212901484e-15
  outer loop
    vertex 27.663420810508992 4.500000089342734 9.149999856948872
    vertex 27.66342081050898 6.500000089342736 8.349999785423282
    vertex 27.663420810508992 4.500000089342737 10.09999990463258
  endloop
endfacet
facet normal 1.0 1.9864623598875185e-16 -6.0755651212901484e-15
  outer loop
    vertex 27.663420810508992 4.500000089342737 10.09999990463258
    vertex 27.66342081050898 6.500000089342736 8.349999785423282
    vertex 27.663420810508992 4.899999707873011 10.099999904632577
  endloop
endfacet
facet normal 1.0 1.9864623598875185e-16 -6.0755651212901484e-15
  outer loop
    vertex 27.663420810508992 4.899999707873011 10.099999904632577
    vertex 27.66342081050898 6.500000089342736 8.349999785423282
    vertex 27.663420810508992 6.500000089342736 9.149999856948872
  endloop
endfacet
facet normal 1.9974763180008598e-15 4.3333957515980126e-16 -1.0
  outer loop
    vertex 27.663420810509002 4.500000089342734 5.949999809265157
    vertex 24.663420899915945 1.3999998558648343 5.949999809265147
    vertex 24.663420899915945 4.500000089342734 5.94999980926515
  endloop
endfacet
facet normal 1.9974763180008598e-15 4.3333957515980126e-16 -1.0
  outer loop
    vertex 24.663420899915945 1.3999998558648343 5.949999809265147
    vertex 27.663420810509002 4.500000089342734 5.949999809265157
    vertex 27.663420810509002 1.3999998558648328 5.949999809265153
  endloop
endfacet
facet normal -7.03213280312571e-16 0.043437216785943276 -0.9990561586807275
  outer loop
    vertex 27.66342081050898 6.500000089342736 8.349999785423282
    vertex 24.663420899915955 1.3999998558554607 8.12826068314611
    vertex 24.663420899915934 6.500000089342736 8.349999785423277
  endloop
endfacet
facet normal -7.03213280312571e-16 0.043437216785943276 -0.9990561586807275
  outer loop
    vertex 24.663420899915955 1.3999998558554607 8.12826068314611
    vertex 27.66342081050898 6.500000089342736 8.349999785423282
    vertex 27.66342081050898 1.3999998558548445 8.128260683146072
  endloop
endfacet
facet normal 2.925211056751483e-13 1.0 9.51108465377479e-13
  outer loop
    vertex 23.663420810508995 1.399999855854843 5.149999856948866
    vertex 24.663420899915945 1.3999998558648343 5.949999809265147
    vertex 28.663420810508992 1.399999855854843 5.149999856948866
  endloop
endfacet
facet normal 2.925211056751483e-13 1.0 9.51108465377479e-13
  outer loop
    vertex 24.663420899915945 1.3999998558648343 5.949999809265147
    vertex 23.663420810508995 1.399999855854843 5.149999856948866
    vertex 23.663420810508995 1.399999855854843 9.795141598901113
  endloop
endfacet
facet normal 2.925211056751483e-13 1.0 9.51108465377479e-13
  outer loop
    vertex 24.663420899915945 1.3999998558648343 5.949999809265147
    vertex 23.663420810508995 1.399999855854843 9.795141598901113
    vertex 24.66342089991594 1.3999998558648343 6.971738945490644
  endloop
endfacet
facet normal 2.925211056751483e-13 1.0 9.51108465377479e-13
  outer loop
    vertex 24.66342089991594 1.3999998558648343 6.971738945490644
    vertex 23.663420810508995 1.399999855854843 9.795141598901113
    vertex 24.663420899915955 1.3999998558554607 8.12826068314611
  endloop
endfacet
facet normal 2.925211056751483e-13 1.0 9.51108465377479e-13
  outer loop
    vertex 24.66342089991594 1.3999998558648343 6.971738945490644
    vertex 24.663420899915955 1.3999998558554607 8.12826068314611
    vertex 27.663420810509 1.3999998558648328 6.971738945490656
  endloop
endfacet
facet normal 2.925211056751483e-13 1.0 9.51108465377479e-13
  outer loop
    vertex 27.663420810509 1.3999998558648328 6.971738945490656
    vertex 24.663420899915955 1.3999998558554607 8.12826068314611
    vertex 27.66342081050898 1.3999998558548445 8.128260683146072
  endloop
endfacet
facet normal 2.925211056751483e-13 1.0 9.51108465377479e-13
  outer loop
    vertex 24.663420899915955 1.3999998558554607 8.12826068314611
    vertex 23.663420810508995 1.399999855854843 9.795141598901113
    vertex 24.663420899915952 1.3999998558548388 9.14999985694886
  endloop
endfacet
facet normal 2.925211056751483e-13 1.0 9.51108465377479e-13
  outer loop
    vertex 28.663420810508992 1.399999855854843 5.149999856948866
    vertex 27.663420810509002 1.3999998558648328 5.949999809265153
    vertex 28.663420810508992 1.399999855854843 9.795141598901113
  endloop
endfacet
facet normal 2.925211056751483e-13 1.0 9.51108465377479e-13
  outer loop
    vertex 27.663420810509002 1.3999998558648328 5.949999809265153
    vertex 28.663420810508992 1.399999855854843 5.149999856948866
    vertex 24.663420899915945 1.3999998558648343 5.949999809265147
  endloop
endfacet
facet normal 2.925211056751483e-13 1.0 9.51108465377479e-13
  outer loop
    vertex 28.663420810508992 1.399999855854843 9.795141598901113
    vertex 27.663420810509002 1.3999998558648328 5.949999809265153
    vertex 27.663420810509 1.3999998558648328 6.971738945490656
  endloop
endfacet
facet normal 2.925211056751483e-13 1.0 9.51108465377479e-13
  outer loop
    vertex 28.663420810508992 1.399999855854843 9.795141598901113
    vertex 27.663420810509 1.3999998558648328 6.971738945490656
    vertex 27.66342081050898 1.3999998558548445 8.128260683146072
  endloop
endfacet
facet normal 2.925211056751483e-13 1.0 9.51108465377479e-13
  outer loop
    vertex 28.663420810508992 1.399999855854843 9.795141598901113
    vertex 27.66342081050898 1.3999998558548445 8.128260683146072
    vertex 27.663420810508992 1.3999998558548388 9.14999985694886
  endloop
endfacet
facet normal 2.925211056751483e-13 1.0 9.51108465377479e-13
  outer loop
    vertex 28.663420810508992 1.399999855854843 9.795141598901113
    vertex 27.663420810508992 1.3999998558548388 9.14999985694886
    vertex 24.663420899915952 1.3999998558548388 9.14999985694886
  endloop
endfacet
facet normal 2.925211056751483e-13 1.0 9.51108465377479e-13
  outer loop
    vertex 28.663420810508992 1.399999855854843 9.795141598901113
    vertex 24.663420899915952 1.3999998558548388 9.14999985694886
    vertex 23.663420810508995 1.399999855854843 9.795141598901113
  endloop
endfacet
facet normal -1.0 -1.2520302611473155e-15 -6.338328496106072e-15
  outer loop
    vertex 24.663420899915927 6.500000089342733 6.749999821186066
    vertex 24.663420899915945 1.3999998558648343 5.949999809265147
    vertex 24.66342089991594 1.3999998558648343 6.971738945490644
  endloop
endfacet
facet normal -1.0 -1.2520302611473155e-15 -6.338328496106072e-15
  outer loop
    vertex 24.663420899915945 1.3999998558648343 5.949999809265147
    vertex 24.663420899915927 6.500000089342733 6.749999821186066
    vertex 24.663420899915945 4.500000089342734 5.94999980926515
  endloop
endfacet
facet normal -1.0 -1.2520302611473155e-15 -6.338328496106072e-15
  outer loop
    vertex 24.663420899915945 4.500000089342734 5.94999980926515
    vertex 24.663420899915927 6.500000089342733 6.749999821186066
    vertex 24.663420899915945 4.899999707873002 4.99999976158143
  endloop
endfacet
facet normal -1.0 -1.2520302611473155e-15 -6.338328496106072e-15
  outer loop
    vertex 24.663420899915945 4.899999707873002 4.99999976158143
    vertex 24.663420899915927 6.500000089342733 6.749999821186066
    vertex 24.663420899915945 6.500000089342736 5.949999809265147
  endloop
endfacet
facet normal -1.0 -1.2520302611473155e-15 -6.338328496106072e-15
  outer loop
    vertex 24.663420899915945 4.899999707873002 4.99999976158143
    vertex 24.663420899915945 4.500000089342728 4.999999761581428
    vertex 24.663420899915945 4.500000089342734 5.94999980926515
  endloop
endfacet
facet normal -1.0 -2.6360804449753047e-15 -1.442816159391752e-14
  outer loop
    vertex 24.663420899915945 4.500000089342734 9.149999856948861
    vertex 24.663420899915955 1.3999998558554607 8.12826068314611
    vertex 24.663420899915952 1.3999998558548388 9.14999985694886
  endloop
endfacet
facet normal -1.0 -2.6360804449753047e-15 -1.442816159391752e-14
  outer loop
    vertex 24.663420899915955 1.3999998558554607 8.12826068314611
    vertex 24.663420899915945 4.500000089342734 9.149999856948861
    vertex 24.663420899915934 6.500000089342736 8.349999785423277
  endloop
endfacet
facet normal -1.0 -2.6360804449753047e-15 -1.442816159391752e-14
  outer loop
    vertex 24.663420899915934 6.500000089342736 8.349999785423277
    vertex 24.663420899915945 4.500000089342734 9.149999856948861
    vertex 24.663420899915916 4.500000089342737 10.099999904632567
  endloop
endfacet
facet normal -1.0 -2.6360804449753047e-15 -1.442816159391752e-14
  outer loop
    vertex 24.663420899915934 6.500000089342736 8.349999785423277
    vertex 24.663420899915916 4.500000089342737 10.099999904632567
    vertex 24.663420899915916 4.899999707873011 10.099999904632563
  endloop
endfacet
facet normal -1.0 -2.6360804449753047e-15 -1.442816159391752e-14
  outer loop
    vertex 24.663420899915934 6.500000089342736 8.349999785423277
    vertex 24.663420899915916 4.899999707873011 10.099999904632563
    vertex 24.663420899915945 6.500000089342736 9.14999985694886
  endloop
endfacet
facet normal -1.644980497177175e-15 -2.593797604474371e-15 1.0
  outer loop
    vertex 24.663420899915952 1.3999998558548388 9.14999985694886
    vertex 27.663420810508992 4.500000089342734 9.149999856948872
    vertex 24.663420899915945 4.500000089342734 9.149999856948861
  endloop
endfacet
facet normal -1.644980497177175e-15 -2.593797604474371e-15 1.0
  outer loop
    vertex 27.663420810508992 4.500000089342734 9.149999856948872
    vertex 24.663420899915952 1.3999998558548388 9.14999985694886
    vertex 27.663420810508992 1.3999998558548388 9.14999985694886
  endloop
endfacet
facet normal -2.925211056751483e-13 -1.0 -9.51108465377479e-13
  outer loop
    vertex 28.663420810508697 0.39999985585484354 9.79514159890016
    vertex 23.6634208105087 0.39999985585484354 5.1499998569479155
    vertex 28.663420810508697 0.39999985585484354 5.1499998569479155
  endloop
endfacet
facet normal -2.925211056751483e-13 -1.0 -9.51108465377479e-13
  outer loop
    vertex 23.6634208105087 0.39999985585484354 5.1499998569479155
    vertex 28.663420810508697 0.39999985585484354 9.79514159890016
    vertex 23.6634208105087 0.39999985585484354 9.79514159890016
  endloop
endfacet
facet normal 0.0 9.51108465377479e-13 -1.0
  outer loop
    vertex 23.663420810508995 1.399999855854843 5.149999856948866
    vertex 28.663420810508697 0.39999985585484354 5.1499998569479155
    vertex 23.6634208105087 0.39999985585484354 5.1499998569479155
  endloop
endfacet
facet normal 0.0 9.51108465377479e-13 -1.0
  outer loop
    vertex 28.663420810508697 0.39999985585484354 5.1499998569479155
    vertex 23.663420810508995 1.399999855854843 5.149999856948866
    vertex 28.663420810508992 1.399999855854843 5.149999856948866
  endloop
endfacet
facet normal 1.0 -2.925211056751483e-13 -4.9840611996178255e-30
  outer loop
    vertex 28.663420810508992 1.399999855854843 5.149999856948866
    vertex 28.663420810508697 0.39999985585484354 9.79514159890016
    vertex 28.663420810508697 0.39999985585484354 5.1499998569479155
  endloop
endfacet
facet normal 1.0 -2.925211056751483e-13 -4.9840611996178255e-30
  outer loop
    vertex 28.663420810508697 0.39999985585484354 9.79514159890016
    vertex 28.663420810508992 1.399999855854843 5.149999856948866
    vertex 28.663420810508992 1.399999855854843 9.795141598901113
  endloop
endfacet
facet normal 0.0 -9.51108465377479e-13 1.0
  outer loop
    vertex 28.663420810508697 0.39999985585484354 9.79514159890016
    vertex 23.663420810508995 1.399999855854843 9.795141598901113
    vertex 23.6634208105087 0.39999985585484354 9.79514159890016
  endloop
endfacet
facet normal 0.0 -9.51108465377479e-13 1.0
  outer loop
    vertex 23.663420810508995 1.399999855854843 9.795141598901113
    vertex 28.663420810508697 0.39999985585484354 9.79514159890016
    vertex 28.663420810508992 1.399999855854843 9.795141598901113
  endloop
endfacet
facet normal -1.0 2.925211056751483e-13 4.9840611996178255e-30
  outer loop
    vertex 23.663420810508995 1.399999855854843 9.795141598901113
    vertex 23.6634208105087 0.39999985585484354 5.1499998569479155
    vertex 23.6634208105087 0.39999985585484354 9.79514159890016
  endloop
endfacet
facet normal -1.0 2.925211056751483e-13 4.9840611996178255e-30
  outer loop
    vertex 23.6634208105087 0.39999985585484354 5.1499998569479155
    vertex 23.663420810508995 1.399999855854843 9.795141598901113
    vertex 23.663420810508995 1.399999855854843 5.149999856948866
  endloop
endfacet
facet normal 1.0 5.659875528268798e-16 -7.531333105612616e-15
  outer loop
    vertex 27.66342081050898 4.899999707873002 4.99999976158143
    vertex 27.663420810509002 4.500000089342734 5.949999809265157
    vertex 27.66342081050898 4.500000089342728 4.999999761581428
  endloop
endfacet
facet normal 1.0 5.659875528268798e-16 -7.531333105612616e-15
  outer loop
    vertex 27.663420810509002 4.500000089342734 5.949999809265157
    vertex 27.663420810509 1.3999998558648328 6.971738945490656
    vertex 27.663420810509002 1.3999998558648328 5.949999809265153
  endloop
endfacet
facet normal 1.0 5.659875528268798e-16 -7.531333105612616e-15
  outer loop
    vertex 27.663420810509 1.3999998558648328 6.971738945490656
    vertex 27.663420810509002 4.500000089342734 5.949999809265157
    vertex 27.663420810508992 6.500000089342733 6.749999821186076
  endloop
endfacet
facet normal 1.0 5.659875528268798e-16 -7.531333105612616e-15
  outer loop
    vertex 27.663420810508992 6.500000089342733 6.749999821186076
    vertex 27.663420810509002 4.500000089342734 5.949999809265157
    vertex 27.66342081050898 4.899999707873002 4.99999976158143
  endloop
endfacet
facet normal 1.0 5.659875528268798e-16 -7.531333105612616e-15
  outer loop
    vertex 27.663420810508992 6.500000089342733 6.749999821186076
    vertex 27.66342081050898 4.899999707873002 4.99999976158143
    vertex 27.663420810509002 6.500000089342736 5.9499998092651545
  endloop
endfacet
facet normal -3.749003560338477e-15 0.0434372210929034 0.9990561584934685
  outer loop
    vertex 24.66342089991594 1.3999998558648343 6.971738945490644
    vertex 27.663420810508992 6.500000089342733 6.749999821186076
    vertex 24.663420899915927 6.500000089342733 6.749999821186066
  endloop
endfacet
facet normal -3.749003560338477e-15 0.0434372210929034 0.9990561584934685
  outer loop
    vertex 27.663420810508992 6.500000089342733 6.749999821186076
    vertex 24.66342089991594 1.3999998558648343 6.971738945490644
    vertex 27.663420810509 1.3999998558648328 6.971738945490656
  endloop
endfacet
endsolid Icebot_pin02
